<svg width="17" height="18" viewBox="0 0 17 18" fill="none" xmlns="http://www.w3.org/2000/svg">
<mask id="mask0_1599_424" style="mask-type:luminance" maskUnits="userSpaceOnUse" x="0" y="0" width="18" height="18">
<path d="M18 0H0V18H18V0Z" fill="white"/>
</mask>
<g mask="url(#mask0_1599_424)">
<path d="M12.7127 0.506348H9.53457C8.80332 0.506348 8.18457 1.1251 8.18457 1.85635V3.79697C8.18457 4.13447 8.46582 4.41572 8.80332 4.41572C9.14082 4.41572 9.45019 4.13447 9.45019 3.79697V1.82822C9.45019 1.77197 9.47832 1.74385 9.53457 1.74385H12.7127C13.3877 1.74385 13.9221 2.27822 13.9221 2.95322V15.0189C13.9221 15.6939 13.3877 16.2282 12.7127 16.2282H9.53457C9.47832 16.2282 9.45019 16.2001 9.45019 16.1439V14.2032C9.45019 13.8657 9.16894 13.5845 8.80332 13.5845C8.43769 13.5845 8.18457 13.8657 8.18457 14.2032V16.1439C8.18457 16.8751 8.80332 17.4939 9.53457 17.4939H12.7127C14.0908 17.4939 15.1877 16.3689 15.1877 15.0189V2.98135C15.1877 1.60322 14.0627 0.506348 12.7127 0.506348Z" fill="#DEE4EE"/>
<path d="M10.4346 8.55004L7.62207 5.6813C7.36895 5.42818 6.97519 5.42818 6.72207 5.6813C6.46895 5.93443 6.46895 6.32817 6.72207 6.58129L8.46582 8.35317H3.45957C3.12207 8.35317 2.84082 8.63442 2.84082 8.97192C2.84082 9.30942 3.12207 9.59067 3.45957 9.59067H8.49395L6.72207 11.3907C6.46895 11.6438 6.46895 12.0376 6.72207 12.2907C6.83457 12.4032 7.00332 12.4594 7.17207 12.4594C7.34082 12.4594 7.50957 12.4032 7.62207 12.2625L10.4346 9.39379C10.6877 9.19692 10.6877 8.80317 10.4346 8.55004Z" fill="#DEE4EE"/>
</g>
</svg>
