<svg width="108" height="28" viewBox="0 0 108 28" fill="none" xmlns="http://www.w3.org/2000/svg">
<g clip-path="url(#clip0_1597_352)">
<path d="M61.2642 20.9878L54.6816 14.563C54.5239 14.4053 54.4409 14.2144 54.4409 14.0068C54.4409 13.791 54.5322 13.5835 54.6899 13.4507L61.2642 7.01758C61.4053 6.87646 61.5879 6.79346 61.8037 6.79346C62.2354 6.79346 62.5591 7.12549 62.5591 7.55713C62.5591 7.75635 62.4761 7.95557 62.3433 8.09668L56.3003 14.0068L62.3433 19.917C62.4761 20.0581 62.5591 20.249 62.5591 20.4565C62.5591 20.8882 62.2354 21.2119 61.8037 21.2119C61.5879 21.2119 61.4053 21.1289 61.2642 20.9878Z" fill="#737373"/>
<path d="M88.1963 21.2202C88.4121 21.2202 88.5947 21.1372 88.7358 20.9961L95.3184 14.563C95.4761 14.4053 95.5591 14.2144 95.5591 14.0068C95.5591 13.791 95.4761 13.5918 95.3184 13.4507L88.7441 7.02588C88.5947 6.87646 88.4121 6.79346 88.1963 6.79346C87.7646 6.79346 87.4409 7.12549 87.4409 7.55713C87.4409 7.75635 87.5239 7.95557 87.6567 8.09668L93.6997 14.0068L87.6567 19.917C87.5239 20.0581 87.4409 20.249 87.4409 20.4565C87.4409 20.8882 87.7646 21.2202 88.1963 21.2202Z" fill="#BFBFBF"/>
</g>
<path d="M9.31982 21.6602H23.6802C25.4233 21.6602 26.2866 20.7969 26.2866 19.0869V8.95166C26.2866 7.2417 25.4233 6.37842 23.6802 6.37842H9.31982C7.58496 6.37842 6.71338 7.2334 6.71338 8.95166V19.0869C6.71338 20.8052 7.58496 21.6602 9.31982 21.6602ZM9.33643 20.3237C8.50635 20.3237 8.0498 19.8838 8.0498 19.0205V9.01807C8.0498 8.15479 8.50635 7.71484 9.33643 7.71484H13.0386V20.3237H9.33643ZM23.6636 7.71484C24.4854 7.71484 24.9502 8.15479 24.9502 9.01807V19.0205C24.9502 19.8838 24.4854 20.3237 23.6636 20.3237H14.3418V7.71484H23.6636ZM11.4365 10.7944C11.6938 10.7944 11.9097 10.5703 11.9097 10.3296C11.9097 10.0806 11.6938 9.86475 11.4365 9.86475H9.66016C9.41113 9.86475 9.18701 10.0806 9.18701 10.3296C9.18701 10.5703 9.41113 10.7944 9.66016 10.7944H11.4365ZM11.4365 12.9443C11.6938 12.9443 11.9097 12.7202 11.9097 12.4712C11.9097 12.2222 11.6938 12.0146 11.4365 12.0146H9.66016C9.41113 12.0146 9.18701 12.2222 9.18701 12.4712C9.18701 12.7202 9.41113 12.9443 9.66016 12.9443H11.4365ZM11.4365 15.0859C11.6938 15.0859 11.9097 14.8784 11.9097 14.6294C11.9097 14.3804 11.6938 14.1646 11.4365 14.1646H9.66016C9.41113 14.1646 9.18701 14.3804 9.18701 14.6294C9.18701 14.8784 9.41113 15.0859 9.66016 15.0859H11.4365Z" fill="#737373"/>
<defs>
<clipPath id="clip0_1597_352">
<rect width="66" height="28" fill="white" transform="translate(42)"/>
</clipPath>
</defs>
</svg>
