<svg width="156" height="28" viewBox="0 0 156 28" fill="none" xmlns="http://www.w3.org/2000/svg">
<g clip-path="url(#clip0_1597_322)">
<path d="M16.5 22.4736C21.1318 22.4736 24.9668 18.6304 24.9668 14.0068C24.9668 9.375 21.1235 5.54004 16.4917 5.54004C11.8682 5.54004 8.0332 9.375 8.0332 14.0068C8.0332 18.6304 11.8765 22.4736 16.5 22.4736ZM16.5 21.0625C12.582 21.0625 9.45264 17.9248 9.45264 14.0068C9.45264 10.0889 12.5737 6.95117 16.4917 6.95117C20.4097 6.95117 23.5474 10.0889 23.5557 14.0068C23.564 17.9248 20.418 21.0625 16.5 21.0625ZM16.5 9.78174C16.1431 9.78174 15.8774 10.0391 15.8774 10.4043V14.5547L15.9438 16.3062L15.1138 15.3101L14.126 14.314C14.0098 14.2061 13.8604 14.1313 13.686 14.1313C13.3457 14.1313 13.0884 14.397 13.0884 14.729C13.0884 14.9033 13.1382 15.0527 13.2461 15.1606L16.0186 17.9248C16.1846 18.0908 16.3257 18.1572 16.5 18.1572C16.6826 18.1572 16.832 18.0825 16.9897 17.9248L19.7539 15.1606C19.8618 15.0527 19.9282 14.9033 19.9282 14.729C19.9282 14.397 19.6626 14.1313 19.3223 14.1313C19.1396 14.1313 18.9902 14.1978 18.8823 14.314L17.9028 15.3101L17.0562 16.3145L17.1226 14.5547V10.4043C17.1226 10.0391 16.8652 9.78174 16.5 9.78174Z" fill="#737373"/>
<path d="M57.5 16.2646C57.8569 16.2646 58.1558 15.9658 58.1558 15.6172V7.09229L58.106 5.84717L58.6704 6.43652L59.9238 7.78125C60.04 7.91406 60.2144 7.98047 60.3721 7.98047C60.7207 7.98047 60.978 7.73145 60.978 7.39111C60.978 7.2168 60.9116 7.08398 60.7871 6.95947L57.9814 4.25342C57.8154 4.0874 57.666 4.0293 57.5 4.0293C57.334 4.0293 57.1846 4.0874 57.0186 4.25342L54.2129 6.95947C54.0884 7.08398 54.0137 7.2168 54.0137 7.39111C54.0137 7.73145 54.271 7.98047 54.6113 7.98047C54.7773 7.98047 54.9517 7.91406 55.0679 7.78125L56.3296 6.43652L56.894 5.84717L56.8359 7.09229V15.6172C56.8359 15.9658 57.1431 16.2646 57.5 16.2646ZM52.7354 22.7642H62.2563C63.9912 22.7642 64.8628 21.9009 64.8628 20.1909V11.9067C64.8628 10.1968 63.9912 9.3335 62.2563 9.3335H59.9404V10.6699H62.2314C63.0532 10.6699 63.5264 11.1182 63.5264 11.9814V20.1162C63.5264 20.9795 63.0532 21.4277 62.2314 21.4277H52.752C51.9219 21.4277 51.4653 20.9795 51.4653 20.1162V11.9814C51.4653 11.1182 51.9219 10.6699 52.752 10.6699H55.0513V9.3335H52.7354C51.0005 9.3335 50.1289 10.1968 50.1289 11.9067V20.1909C50.1289 21.9009 51.0005 22.7642 52.7354 22.7642Z" fill="#737373"/>
<path d="M98.5 21.0044C98.9067 21.0044 99.2471 20.6807 99.2471 20.2822V14.7622H104.609C105.008 14.7622 105.348 14.4219 105.348 14.0151C105.348 13.6084 105.008 13.2764 104.609 13.2764H99.2471V7.74805C99.2471 7.34961 98.9067 7.02588 98.5 7.02588C98.0933 7.02588 97.7612 7.34961 97.7612 7.74805V13.2764H92.3906C91.9922 13.2764 91.6519 13.6084 91.6519 14.0151C91.6519 14.4219 91.9922 14.7622 92.3906 14.7622H97.7612V20.2822C97.7612 20.6807 98.0933 21.0044 98.5 21.0044Z" fill="#737373"/>
<path d="M133.324 18.8711H134.744V20.1411C134.744 21.8511 135.607 22.7144 137.35 22.7144H145.684C147.411 22.7144 148.282 21.8511 148.282 20.1411V11.7407C148.282 10.0308 147.411 9.16748 145.684 9.16748H144.256V7.89746C144.256 6.1875 143.385 5.32422 141.658 5.32422H133.324C131.581 5.32422 130.718 6.1875 130.718 7.89746V16.2979C130.718 18.0078 131.581 18.8711 133.324 18.8711ZM133.341 17.5347C132.511 17.5347 132.054 17.0864 132.054 16.2231V7.97217C132.054 7.10889 132.511 6.66064 133.341 6.66064H141.633C142.455 6.66064 142.92 7.10889 142.92 7.97217V9.16748H137.35C135.607 9.16748 134.744 10.0225 134.744 11.7407V17.5347H133.341ZM137.367 21.3779C136.545 21.3779 136.08 20.9297 136.08 20.0664V11.8154C136.08 10.9521 136.545 10.5039 137.367 10.5039H145.659C146.481 10.5039 146.946 10.9521 146.946 11.8154V20.0664C146.946 20.9297 146.481 21.3779 145.659 21.3779H137.367Z" fill="#737373"/>
</g>
<defs>
<clipPath id="clip0_1597_322">
<rect width="156" height="28" fill="white"/>
</clipPath>
</defs>
</svg>
