<svg width="18" height="18" viewBox="0 0 18 18" fill="none" xmlns="http://www.w3.org/2000/svg">
<mask id="mask0_1599_407" style="mask-type:luminance" maskUnits="userSpaceOnUse" x="0" y="0" width="18" height="18">
<path d="M18 0H0V18H18V0Z" fill="white"/>
</mask>
<g mask="url(#mask0_1599_407)">
<path d="M15.8343 2.44677C15.8343 1.37802 14.9624 0.478027 13.8655 0.478027H4.13428C3.06553 0.478027 2.16553 1.3499 2.16553 2.44677V16.5656C2.16553 16.7906 2.30615 17.0156 2.50303 17.1281C2.6999 17.2406 2.95303 17.2124 3.1499 17.0999L4.55615 16.1718L6.44053 17.4093C6.66553 17.5499 6.91865 17.5499 7.14365 17.4093L8.9999 16.1718L10.8562 17.4093C10.9687 17.4937 11.0812 17.5218 11.1937 17.5218C11.3062 17.5218 11.4468 17.4937 11.5312 17.4093L13.3874 16.1718L14.7937 17.1281C14.9905 17.2687 15.2437 17.2687 15.4405 17.1562C15.6374 17.0437 15.778 16.8187 15.778 16.5937L15.8343 2.44677ZM14.0343 15.0468C13.6687 14.7937 13.1905 14.7937 12.8249 15.0468L11.2218 16.1156L9.61865 15.0468C9.42178 14.9343 9.2249 14.8499 8.9999 14.8499C8.80303 14.8499 8.57803 14.9062 8.40928 15.0468L6.80615 16.1156L5.20303 15.0468C4.8374 14.7937 4.35928 14.7937 3.99365 15.0468L3.45928 15.3843V2.44677C3.45928 2.05302 3.76865 1.74365 4.1624 1.74365H13.9218C14.3155 1.74365 14.6249 2.05302 14.6249 2.44677V15.3843L14.0343 15.0468Z" fill="#DEE4EE"/>
<path d="M7.93106 3.74048H5.5123C5.1748 3.74048 4.89355 4.02173 4.89355 4.35923C4.89355 4.69673 5.1748 4.97798 5.5123 4.97798H7.93106C8.26856 4.97798 8.54982 4.69673 8.54982 4.35923C8.54982 4.02173 8.26856 3.74048 7.93106 3.74048Z" fill="#DEE4EE"/>
<path d="M12.347 3.74048H11.672C11.3345 3.74048 11.0532 4.02173 11.0532 4.35923C11.0532 4.69673 11.3345 4.97798 11.672 4.97798H12.347C12.6845 4.97798 12.9657 4.69673 12.9657 4.35923C12.9657 4.02173 12.6845 3.74048 12.347 3.74048Z" fill="#DEE4EE"/>
<path d="M5.5123 8.69063H7.05918C7.39668 8.69063 7.67793 8.40937 7.67793 8.07187C7.67793 7.73437 7.39668 7.45312 7.05918 7.45312H5.5123C5.1748 7.45312 4.89355 7.73437 4.89355 8.07187C4.89355 8.40937 5.14668 8.69063 5.5123 8.69063Z" fill="#DEE4EE"/>
<path d="M12.347 7.4248H11.672C11.3345 7.4248 11.0532 7.70605 11.0532 8.04355C11.0532 8.38105 11.3345 8.6623 11.672 8.6623H12.347C12.6845 8.6623 12.9657 8.38105 12.9657 8.04355C12.9657 7.70605 12.6845 7.4248 12.347 7.4248Z" fill="#DEE4EE"/>
<path d="M7.93106 11.0811H5.5123C5.1748 11.0811 4.89355 11.3624 4.89355 11.6999C4.89355 12.0374 5.1748 12.3186 5.5123 12.3186H7.93106C8.26856 12.3186 8.54982 12.0374 8.54982 11.6999C8.54982 11.3624 8.26856 11.0811 7.93106 11.0811Z" fill="#DEE4EE"/>
<path d="M12.347 11.0811H11.672C11.3345 11.0811 11.0532 11.3624 11.0532 11.6999C11.0532 12.0374 11.3345 12.3186 11.672 12.3186H12.347C12.6845 12.3186 12.9657 12.0374 12.9657 11.6999C12.9657 11.3624 12.6845 11.0811 12.347 11.0811Z" fill="#DEE4EE"/>
</g>
</svg>
