<svg width="18" height="18" viewBox="0 0 18 18" fill="none" xmlns="http://www.w3.org/2000/svg">
<path d="M9.0002 7.79053C11.0814 7.79053 12.7689 6.15928 12.7689 4.13428C12.7689 2.10928 11.0814 0.478027 9.0002 0.478027C6.91895 0.478027 5.23145 2.10928 5.23145 4.13428C5.23145 6.15928 6.91895 7.79053 9.0002 7.79053ZM9.0002 1.77178C10.3783 1.77178 11.5033 2.84053 11.5033 4.1624C11.5033 5.48428 10.3783 6.55303 9.0002 6.55303C7.62207 6.55303 6.49707 5.48428 6.49707 4.1624C6.49707 2.84053 7.62207 1.77178 9.0002 1.77178Z" fill="#DEE4EE"/>
<path d="M10.8283 9.05615H7.17207C4.16269 9.05615 1.71582 11.5312 1.71582 14.5405V16.8749C1.71582 17.2124 1.99707 17.5218 2.3627 17.5218C2.72832 17.5218 3.00957 17.2406 3.00957 16.8749V14.5405C3.00957 12.2343 4.89394 10.3218 7.22832 10.3218H10.8564C13.1627 10.3218 15.0752 12.2062 15.0752 14.5405V16.8749C15.0752 17.2124 15.3564 17.5218 15.7221 17.5218C16.0877 17.5218 16.3689 17.2406 16.3689 16.8749V14.5405C16.2846 11.5312 13.8377 9.05615 10.8283 9.05615Z" fill="#DEE4EE"/>
</svg>
