<svg width="293" height="31" viewBox="0 0 293 31" fill="none" xmlns="http://www.w3.org/2000/svg">
<rect x="78" width="110" height="31" rx="15.5" fill="#030303"/>
<circle cx="171.62" cy="15.6202" r="9.62021" fill="#0E0B0F"/>
<circle cx="171.62" cy="15.6202" r="5.34456" fill="#161424"/>
<circle cx="171.62" cy="15.6202" r="3.20674" fill="#0F0F2A"/>
<circle cx="171.62" cy="14.5512" r="1.06891" fill="#393752"/>
<path opacity="0.35" d="M265.528 13C265.528 11.0822 267.082 9.52754 269 9.52754H286C287.918 9.52754 289.472 11.0822 289.472 13V18C289.472 19.9178 287.918 21.4725 286 21.4725H269C267.082 21.4725 265.528 19.9178 265.528 18V13Z" stroke="#0D0D0E" stroke-width="1.05509"/>
<path opacity="0.4" d="M291 14V18.2203C291.849 17.8629 292.401 17.0314 292.401 16.1102C292.401 15.1889 291.849 14.3574 291 14Z" fill="#0D0D0E"/>
<path d="M267 13C267 11.8954 267.895 11 269 11H286C287.105 11 288 11.8954 288 13V18C288 19.1046 287.105 20 286 20H269C267.895 20 267 19.1046 267 18V13Z" fill="#0D0D0E"/>
<path fill-rule="evenodd" clip-rule="evenodd" d="M250.5 11.5875C252.967 11.5876 255.339 12.5551 257.127 14.2898C257.261 14.4237 257.477 14.4221 257.609 14.286L258.896 12.9605C258.963 12.8915 259.001 12.798 259 12.7008C258.999 12.6035 258.961 12.5105 258.893 12.4423C254.201 7.85255 246.799 7.85255 242.107 12.4423C242.039 12.5105 242.001 12.6034 242 12.7007C241.999 12.7979 242.037 12.8914 242.104 12.9605L243.391 14.286C243.523 14.4223 243.739 14.424 243.873 14.2898C245.661 12.5549 248.034 11.5875 250.5 11.5875ZM250.536 15.6724C251.891 15.6723 253.198 16.1864 254.203 17.115C254.338 17.2467 254.552 17.2439 254.685 17.1085L255.97 15.7829C256.038 15.7134 256.075 15.6191 256.074 15.5211C256.073 15.4231 256.034 15.3295 255.965 15.2614C252.906 12.3568 248.169 12.3568 245.109 15.2614C245.04 15.3295 245.001 15.4231 245 15.5212C244.999 15.6192 245.037 15.7135 245.105 15.7829L246.39 17.1085C246.522 17.2439 246.736 17.2467 246.872 17.115C247.876 16.1871 249.182 15.6729 250.536 15.6724ZM253.15 18.3427C253.152 18.441 253.114 18.5357 253.045 18.6046L250.822 20.8948C250.756 20.9621 250.668 21 250.575 21C250.482 21 250.393 20.9621 250.328 20.8948L248.105 18.6046C248.036 18.5357 247.998 18.4409 248 18.3426C248.002 18.2443 248.044 18.1512 248.115 18.0853C249.535 16.8595 251.615 16.8595 253.035 18.0853C253.106 18.1513 253.148 18.2444 253.15 18.3427Z" fill="#0D0D0E"/>
<path d="M227 12C227 11.4477 227.448 11 228 11H229C229.552 11 230 11.4477 230 12V20C230 20.5523 229.552 21 229 21H228C227.448 21 227 20.5523 227 20V12Z" fill="#0D0D0E"/>
<path d="M232 10C232 9.44772 232.448 9 233 9H234C234.552 9 235 9.44772 235 10V20C235 20.5523 234.552 21 234 21H233C232.448 21 232 20.5523 232 20V10Z" fill="#0D0D0E"/>
<path d="M222 15.5C222 14.9477 222.448 14.5 223 14.5H224C224.552 14.5 225 14.9477 225 15.5V20C225 20.5523 224.552 21 224 21H223C222.448 21 222 20.5523 222 20V15.5Z" fill="#0D0D0E"/>
<path d="M217 18C217 17.4477 217.448 17 218 17H219C219.552 17 220 17.4477 220 18V20C220 20.5523 219.552 21 219 21H218C217.448 21 217 20.5523 217 20V18Z" fill="#0D0D0E"/>
<path d="M5.9666 9.72314C8.52324 9.72314 10.7479 11.541 10.7479 15.8574V15.874C10.7479 19.9082 8.92998 22.2988 5.9168 22.2988C3.71709 22.2988 2.07354 20.9956 1.6917 19.1611L1.6751 19.0698H3.7835L3.8084 19.1528C4.12383 19.9912 4.8626 20.5391 5.9168 20.5391C7.81768 20.5391 8.62285 18.6797 8.71416 16.3887C8.71416 16.2974 8.72246 16.2061 8.72246 16.1147H8.55645C8.1165 17.061 7.07061 17.8994 5.42705 17.8994C3.12774 17.8994 1.51738 16.2227 1.51738 13.9482V13.9316C1.51738 11.4995 3.36846 9.72314 5.9666 9.72314ZM5.9583 16.2559C7.31133 16.2559 8.34893 15.2764 8.34893 13.9233V13.9067C8.34893 12.5371 7.31133 11.4663 5.9832 11.4663C4.66338 11.4663 3.60918 12.5205 3.60918 13.8569V13.8735C3.60918 15.2598 4.59697 16.2559 5.9583 16.2559ZM13.7164 14.2388C12.961 14.2388 12.3966 13.6577 12.3966 12.9272C12.3966 12.1885 12.961 11.6157 13.7164 11.6157C14.4801 11.6157 15.0362 12.1885 15.0362 12.9272C15.0362 13.6577 14.4801 14.2388 13.7164 14.2388ZM13.7164 20.3979C12.961 20.3979 12.3966 19.8252 12.3966 19.0864C12.3966 18.3477 12.961 17.7749 13.7164 17.7749C14.4801 17.7749 15.0362 18.3477 15.0362 19.0864C15.0362 19.8252 14.4801 20.3979 13.7164 20.3979ZM22.4955 22V19.7007H16.6352V17.9492C18.1874 15.2515 19.8891 12.4956 21.516 10.022H24.5458V17.9326H26.1562V19.7007H24.5458V22H22.4955ZM18.6273 17.9824H22.5287V11.7319H22.4042C21.1757 13.6079 19.7895 15.8242 18.6273 17.8579V17.9824ZM30.32 22V12.1304H30.1789L27.1989 14.2388V12.2217L30.3283 10.022H32.4616V22H30.32Z" fill="#0D0D0E"/>
</svg>
