<svg width="177" height="39" viewBox="0 0 177 39" fill="none" xmlns="http://www.w3.org/2000/svg">
<path d="M59.8673 30.1186C58.4633 30.1186 57.1547 29.8933 55.9413 29.4426C54.7453 28.9746 53.7053 28.316 52.8213 27.4666C51.9373 26.6173 51.244 25.6206 50.7413 24.4766C50.256 23.3326 50.0133 22.076 50.0133 20.7066C50.0133 19.3373 50.256 18.0806 50.7413 16.9366C51.244 15.7926 51.9373 14.796 52.8213 13.9466C53.7227 13.0973 54.7713 12.4473 55.9673 11.9966C57.1633 11.5286 58.472 11.2946 59.8933 11.2946C61.4707 11.2946 62.892 11.572 64.1573 12.1266C65.44 12.664 66.5147 13.4613 67.3813 14.5186L64.6773 17.0146C64.0533 16.304 63.36 15.7753 62.5973 15.4286C61.8347 15.0646 61.0027 14.8826 60.1013 14.8826C59.252 14.8826 58.472 15.0213 57.7613 15.2986C57.0507 15.576 56.4353 15.9746 55.9153 16.4946C55.3953 17.0146 54.988 17.63 54.6933 18.3406C54.416 19.0513 54.2773 19.84 54.2773 20.7066C54.2773 21.5733 54.416 22.362 54.6933 23.0726C54.988 23.7833 55.3953 24.3986 55.9153 24.9186C56.4353 25.4386 57.0507 25.8373 57.7613 26.1146C58.472 26.392 59.252 26.5306 60.1013 26.5306C61.0027 26.5306 61.8347 26.3573 62.5973 26.0106C63.36 25.6466 64.0533 25.1006 64.6773 24.3726L67.3813 26.8686C66.5147 27.926 65.44 28.732 64.1573 29.2866C62.892 29.8413 61.462 30.1186 59.8673 30.1186ZM80.0035 29.8066V27.0766L79.7435 26.4786V21.5906C79.7435 20.724 79.4748 20.048 78.9375 19.5626C78.4175 19.0773 77.6115 18.8346 76.5195 18.8346C75.7742 18.8346 75.0375 18.956 74.3095 19.1986C73.5988 19.424 72.9922 19.736 72.4895 20.1346L71.0335 17.3006C71.7962 16.7633 72.7148 16.3473 73.7895 16.0526C74.8642 15.758 75.9562 15.6106 77.0655 15.6106C79.1975 15.6106 80.8528 16.1133 82.0315 17.1186C83.2102 18.124 83.7995 19.6926 83.7995 21.8246V29.8066H80.0035ZM75.7395 30.0146C74.6475 30.0146 73.7115 29.8326 72.9315 29.4686C72.1515 29.0873 71.5535 28.576 71.1375 27.9346C70.7215 27.2933 70.5135 26.574 70.5135 25.7766C70.5135 24.9446 70.7128 24.2166 71.1115 23.5926C71.5275 22.9686 72.1775 22.4833 73.0615 22.1366C73.9455 21.7726 75.0982 21.5906 76.5195 21.5906H80.2375V23.9566H76.9615C76.0082 23.9566 75.3495 24.1126 74.9855 24.4246C74.6388 24.7366 74.4655 25.1266 74.4655 25.5946C74.4655 26.1146 74.6648 26.5306 75.0635 26.8426C75.4795 27.1373 76.0428 27.2846 76.7535 27.2846C77.4295 27.2846 78.0362 27.1286 78.5735 26.8166C79.1108 26.4873 79.5008 26.0106 79.7435 25.3866L80.3675 27.2586C80.0728 28.16 79.5355 28.8446 78.7555 29.3126C77.9755 29.7806 76.9702 30.0146 75.7395 30.0146ZM89.0304 29.8066V15.8186H92.9044V19.7706L92.3584 18.6266C92.7744 17.6386 93.4417 16.8933 94.3604 16.3906C95.2791 15.8706 96.3971 15.6106 97.7144 15.6106V19.3546C97.5411 19.3373 97.3851 19.3286 97.2464 19.3286C97.1077 19.3113 96.9604 19.3026 96.8044 19.3026C95.6951 19.3026 94.7937 19.6233 94.1004 20.2646C93.4244 20.8886 93.0864 21.868 93.0864 23.2026V29.8066H89.0304ZM107.889 30.0146C106.242 30.0146 104.959 29.5986 104.041 28.7666C103.122 27.9173 102.663 26.6606 102.663 24.9966V12.7246H106.719V24.9446C106.719 25.534 106.875 25.9933 107.187 26.3226C107.499 26.6346 107.923 26.7906 108.461 26.7906C109.102 26.7906 109.648 26.6173 110.099 26.2706L111.191 29.1306C110.775 29.4253 110.272 29.6506 109.683 29.8066C109.111 29.9453 108.513 30.0146 107.889 30.0146ZM100.505 19.2506V16.1306H110.203V19.2506H100.505ZM115.313 29.8066V11.6066H123.191C124.821 11.6066 126.225 11.8753 127.403 12.4126C128.582 12.9326 129.492 13.6866 130.133 14.6746C130.775 15.6626 131.095 16.8413 131.095 18.2106C131.095 19.5626 130.775 20.7326 130.133 21.7206C129.492 22.7086 128.582 23.4713 127.403 24.0086C126.225 24.5286 124.821 24.7886 123.191 24.7886H117.653L119.525 22.8906V29.8066H115.313ZM119.525 23.3586L117.653 21.3566H122.957C124.257 21.3566 125.228 21.0793 125.869 20.5246C126.511 19.97 126.831 19.1986 126.831 18.2106C126.831 17.2053 126.511 16.4253 125.869 15.8706C125.228 15.316 124.257 15.0386 122.957 15.0386H117.653L119.525 13.0366V23.3586ZM135.63 29.8066V10.5146H139.686V29.8066H135.63ZM150.913 30.0146C149.751 30.0146 148.711 29.7893 147.793 29.3386C146.891 28.888 146.189 28.2033 145.687 27.2846C145.184 26.3486 144.933 25.1613 144.933 23.7226V15.8186H148.989V23.1246C148.989 24.286 149.231 25.144 149.717 25.6986C150.219 26.236 150.921 26.5046 151.823 26.5046C152.447 26.5046 153.001 26.3746 153.487 26.1146C153.972 25.8373 154.353 25.4213 154.631 24.8666C154.908 24.2946 155.047 23.584 155.047 22.7346V15.8186H159.103V29.8066H155.255V25.9586L155.957 27.0766C155.489 28.0473 154.795 28.784 153.877 29.2866C152.975 29.772 151.987 30.0146 150.913 30.0146ZM169.126 30.0146C167.93 30.0146 166.778 29.876 165.668 29.5986C164.576 29.304 163.71 28.94 163.068 28.5066L164.42 25.5946C165.062 25.9933 165.816 26.3226 166.682 26.5826C167.566 26.8253 168.433 26.9466 169.282 26.9466C170.218 26.9466 170.877 26.834 171.258 26.6086C171.657 26.3833 171.856 26.0713 171.856 25.6726C171.856 25.3433 171.7 25.1006 171.388 24.9446C171.094 24.7713 170.695 24.6413 170.192 24.5546C169.69 24.468 169.135 24.3813 168.528 24.2946C167.939 24.208 167.341 24.0953 166.734 23.9566C166.128 23.8006 165.573 23.5753 165.07 23.2806C164.568 22.986 164.16 22.5873 163.848 22.0846C163.554 21.582 163.406 20.932 163.406 20.1346C163.406 19.2506 163.658 18.4706 164.16 17.7946C164.68 17.1186 165.426 16.59 166.396 16.2086C167.367 15.81 168.528 15.6106 169.88 15.6106C170.834 15.6106 171.804 15.7146 172.792 15.9226C173.78 16.1306 174.604 16.434 175.262 16.8326L173.91 19.7186C173.234 19.32 172.55 19.0513 171.856 18.9126C171.18 18.7566 170.522 18.6786 169.88 18.6786C168.979 18.6786 168.32 18.8 167.904 19.0426C167.488 19.2853 167.28 19.5973 167.28 19.9786C167.28 20.3253 167.428 20.5853 167.722 20.7586C168.034 20.932 168.442 21.0706 168.944 21.1746C169.447 21.2786 169.993 21.374 170.582 21.4606C171.189 21.53 171.796 21.6426 172.402 21.7986C173.009 21.9546 173.555 22.18 174.04 22.4746C174.543 22.752 174.95 23.142 175.262 23.6446C175.574 24.13 175.73 24.7713 175.73 25.5686C175.73 26.4353 175.47 27.2066 174.95 27.8826C174.43 28.5413 173.676 29.0613 172.688 29.4426C171.718 29.824 170.53 30.0146 169.126 30.0146Z" fill="black"/>
<rect y="0.806641" width="38" height="38" rx="9" fill="url(#paint0_linear_1617_54)"/>
<path d="M27.9241 10.8066C26.2168 10.8066 24.8043 12.0519 24.5368 13.6843C24.5069 13.8666 24.4873 14.053 24.4873 14.244C24.4873 14.624 24.5514 14.9884 24.6654 15.3303C24.9995 16.3313 25.7805 17.1259 26.7729 17.479C27.1333 17.6076 27.5199 17.6814 27.9242 17.6814C28.0869 17.6814 28.2458 17.666 28.4028 17.6443C30.0735 17.4104 31.36 15.9778 31.36 14.2441C31.3599 12.3446 29.8219 10.8066 27.9241 10.8066Z" fill="#FC6E51"/>
<path d="M29.6402 14.7888H29.3248H28.4729V15.9586C28.4729 16.2602 28.2261 16.5048 27.9241 16.5048C27.6232 16.5048 27.3779 16.2601 27.3779 15.9586V15.4424V15.3298V14.7888H26.2101C25.9072 14.7888 25.6628 14.5446 25.6628 14.2436C25.6628 13.9412 25.9071 13.6969 26.2101 13.6969H27.3779V13.684V12.5276C27.3779 12.2252 27.6232 11.9814 27.9241 11.9814C28.2262 11.9814 28.4729 12.2252 28.4729 12.5276V13.684V13.6969H29.6402C29.6526 13.6969 29.663 13.7031 29.6748 13.7036C29.9577 13.7232 30.1864 13.9535 30.1864 14.2436C30.1864 14.5447 29.9398 14.7888 29.6402 14.7888Z" fill="#F4F8F8"/>
<path d="M23.7516 27.5891C23.7516 28.5606 24.5393 29.348 25.511 29.348C26.4826 29.348 27.2699 28.5606 27.2699 27.5891C27.2699 26.617 26.4826 25.8291 25.511 25.8291C24.5393 25.8291 23.7516 26.617 23.7516 27.5891Z" fill="white"/>
<path d="M11.7775 27.5891C11.7775 28.5606 12.5649 29.348 13.537 29.348C14.5086 29.348 15.2959 28.5606 15.2959 27.5891C15.2959 26.617 14.5086 25.8291 13.537 25.8291C12.5649 25.8291 11.7775 26.617 11.7775 27.5891Z" fill="white"/>
<path d="M10.8596 16.8356L13.4224 25.5455H25.8516L28.1386 18.4628C28.0674 18.467 27.9971 18.4742 27.9247 18.4742C27.0022 18.4742 26.1504 18.1737 25.455 17.6709H23.1188L23.3196 15.3301H23.8416C23.7491 14.9827 23.6949 14.6198 23.6949 14.2438C23.6949 14.0533 23.712 13.8675 23.7362 13.6842H11.7864L10.9469 10.8447H10.934H9.08832H6V12.3429H9.53127L10.8596 16.8356ZM21.6192 24.212H18.1519L17.9536 21.8991H21.8169L21.6192 24.212ZM21.8974 20.9626H17.8737L17.6723 18.6074H22.0987L21.8974 20.9626ZM23.039 18.6074H26.4387L25.7386 20.9626H22.8371L23.039 18.6074ZM22.7571 21.8991H25.4603L24.7741 24.212H22.5588L22.7571 21.8991ZM22.3792 15.3301L22.1789 17.6709H17.5924L17.392 15.3301H22.3792ZM17.2124 24.212H14.6992L14.0569 21.8991H17.0146L17.2124 24.212ZM16.9341 20.9626H13.7967L13.1416 18.6074H16.7323L16.9341 20.9626ZM16.4518 15.3301L16.6522 17.6709H12.965L12.2733 15.3301H16.4518Z" fill="#F4F8F8"/>
<defs>
<linearGradient id="paint0_linear_1617_54" x1="3.5625" y1="3.18164" x2="34.4375" y2="38.2129" gradientUnits="userSpaceOnUse">
<stop stop-color="#3B4ED3"/>
<stop offset="0.739367" stop-color="#3C50E0"/>
</linearGradient>
</defs>
</svg>
