<svg width="350" height="65" viewBox="0 0 350 65" fill="none" xmlns="http://www.w3.org/2000/svg">
<path d="M28.0864 13.4671H39.465V50.9156H28.0864V47.1708C27.5823 48.4671 24.1975 51.6358 18.4362 51.6358C9.86626 51.6358 0 45.5144 0 32.1193C0 19.2284 9.86626 12.8189 18.4362 12.8189C24.1975 12.8189 27.5823 16.1317 28.0864 16.9239V13.4671ZM20.0926 41.6255C24.7737 41.6255 28.5905 38.3848 28.5905 32.1193C28.5905 26.07 24.7737 22.8292 20.0926 22.8292C15.1955 22.8292 11.0185 26.142 11.0185 32.1193C11.0185 38.3128 15.1955 41.6255 20.0926 41.6255ZM67.8395 12.8189C76.4095 12.8189 86.2757 19.2284 86.2757 32.1193C86.2757 45.5144 76.4095 51.6358 67.8395 51.6358C62.0782 51.6358 58.6934 48.4671 58.1893 47.1708V64.5988H46.8107V42.9218V13.4671H58.1893V16.9239C58.6934 16.1317 62.0782 12.8189 67.8395 12.8189ZM66.1831 41.6255C71.0802 41.6255 75.2572 38.3128 75.2572 32.1193C75.2572 26.142 71.0802 22.8292 66.1831 22.8292C61.5021 22.8292 57.6852 26.07 57.6852 32.1193C57.6852 38.3848 61.5021 41.6255 66.1831 41.6255ZM113.498 12.8189C122.068 12.8189 131.934 19.2284 131.934 32.1193C131.934 45.5144 122.068 51.6358 113.498 51.6358C107.737 51.6358 104.352 48.4671 103.848 47.1708V64.5988H92.4691V42.9218V13.4671H103.848V16.9239C104.352 16.1317 107.737 12.8189 113.498 12.8189ZM111.842 41.6255C116.739 41.6255 120.916 38.3128 120.916 32.1193C120.916 26.142 116.739 22.8292 111.842 22.8292C107.16 22.8292 103.344 26.07 103.344 32.1193C103.344 38.3848 107.16 41.6255 111.842 41.6255ZM179.825 13.323L163.045 50.9156H153.035L136.255 13.323H147.562L158.076 37.3765L168.519 13.323H179.825ZM203.879 12.8189C212.377 12.8189 224.259 19.2284 221.883 36.1523H195.741C197.037 40.0411 200.422 42.0576 204.959 42.0576C209.568 42.0576 211.008 41.0494 213.601 39.9691L219.866 46.0185C216.553 49.2593 212.088 51.6358 204.527 51.6358C195.237 51.6358 184.146 45.2263 184.146 32.3354C184.146 19.2284 195.381 12.8189 203.879 12.8189ZM203.879 22.5411C200.638 22.5411 197.325 24.4136 195.885 28.1584H211.8C210.648 24.4136 207.119 22.5411 203.879 22.5411ZM252.418 12.8909C253.426 12.8909 254.434 12.8909 255.37 13.107V23.9815C254.506 23.7654 253.498 23.7654 252.778 23.7654C245.864 23.7654 240.319 28.7346 239.743 35.6481V50.9156H228.364V13.4671H239.743V22.6132C241.471 16.9959 245.792 12.8909 252.418 12.8909ZM280.144 41.4095C282.16 41.4095 283.601 41.1214 285.185 40.6893V50.1235C283.601 50.8436 281.008 51.3477 277.191 51.3477C270.926 51.3477 265.669 49.2593 265.669 37.7366V22.8292H260.411V13.4671H265.669V4.68107H277.047V13.4671H285.041V22.8292H277.047V37.7366C277.047 39.393 277.479 41.4095 280.144 41.4095ZM302.613 0V9.57819H291.235V0H302.613ZM302.613 13.4671V50.9156H291.235V13.4671H302.613ZM336.965 50.9156L329.187 39.9691L321.482 50.9156H308.447L322.634 31.6872L309.887 13.4671H322.778L329.187 23.4774L335.669 13.4671H348.56L335.741 31.6872L350 50.9156H336.965Z" fill="#005CFF"/>
</svg>
