<svg width="84" height="99" viewBox="0 0 84 99" fill="none" xmlns="http://www.w3.org/2000/svg">
<g clip-path="url(#clip0_1858_126)">
<path d="M50.2981 98.2448C27.813 102.623 5.97469 87.7026 1.65129 65.0216C-2.68914 42.3233 12.0853 20.2947 34.5875 15.9336C57.0896 11.5554 78.9109 26.4758 83.2513 49.1568C87.5747 71.8551 72.8002 93.8837 50.2981 98.2448ZM36.0513 23.5569C17.7194 27.111 5.66831 45.0533 9.19172 63.545C12.7151 82.0366 30.5024 94.1927 48.8513 90.6215C67.1832 87.0673 79.2343 69.1251 75.6938 50.6162C72.1704 32.1417 54.3832 19.9857 36.0513 23.5569Z" fill="white"/>
<path d="M66.4709 10.9032L59.3906 21.4531L65.7617 25.8038L72.842 15.2539L66.4709 10.9032Z" fill="white"/>
<path d="M4.31304 22.9699L0 29.3965L10.4587 36.5384L14.7718 30.1118L4.31304 22.9699Z" fill="white"/>
<path d="M37.2968 5.86388L28.3711 7.59766L30.8527 20.5971L39.7785 18.8634L37.2968 5.86388Z" fill="white"/>
<path d="M43.4891 -0.00742854L20.4727 4.46338L22.1915 13.4669L45.2079 8.99611L43.4891 -0.00742854Z" fill="white"/>
<path d="M44.7653 67.2021L29.0547 31.5751L30.0419 31.0601L49.1398 64.97L44.7653 67.2021Z" fill="white"/>
<path d="M46.8917 56.2304C47.3683 58.7029 45.7513 61.1066 43.3002 61.5874C40.8492 62.0681 38.4662 60.437 37.9896 57.9646C37.513 55.4921 39.13 53.0884 41.5811 52.6076C44.0492 52.1269 46.4151 53.7408 46.8917 56.2304Z" fill="white"/>
</g>
<defs>
<clipPath id="clip0_1858_126">
<rect width="84" height="99" fill="white"/>
</clipPath>
</defs>
</svg>
