<svg width="177" height="38" viewBox="0 0 177 38" fill="none" xmlns="http://www.w3.org/2000/svg">
<path d="M59.8696 29.312C58.4656 29.312 57.1569 29.0867 55.9436 28.636C54.7476 28.168 53.7076 27.5093 52.8236 26.66C51.9396 25.8107 51.2463 24.814 50.7436 23.67C50.2583 22.526 50.0156 21.2693 50.0156 19.9C50.0156 18.5307 50.2583 17.274 50.7436 16.13C51.2463 14.986 51.9396 13.9893 52.8236 13.14C53.7249 12.2907 54.7736 11.6407 55.9696 11.19C57.1656 10.722 58.4743 10.488 59.8956 10.488C61.4729 10.488 62.8943 10.7653 64.1596 11.32C65.4423 11.8573 66.5169 12.6547 67.3836 13.712L64.6796 16.208C64.0556 15.4973 63.3623 14.9687 62.5996 14.622C61.8369 14.258 61.0049 14.076 60.1036 14.076C59.2543 14.076 58.4743 14.2147 57.7636 14.492C57.0529 14.7693 56.4376 15.168 55.9176 15.688C55.3976 16.208 54.9903 16.8233 54.6956 17.534C54.4183 18.2447 54.2796 19.0333 54.2796 19.9C54.2796 20.7667 54.4183 21.5553 54.6956 22.266C54.9903 22.9767 55.3976 23.592 55.9176 24.112C56.4376 24.632 57.0529 25.0307 57.7636 25.308C58.4743 25.5853 59.2543 25.724 60.1036 25.724C61.0049 25.724 61.8369 25.5507 62.5996 25.204C63.3623 24.84 64.0556 24.294 64.6796 23.566L67.3836 26.062C66.5169 27.1193 65.4423 27.9253 64.1596 28.48C62.8943 29.0347 61.4643 29.312 59.8696 29.312ZM80.0058 29V26.27L79.7458 25.672V20.784C79.7458 19.9173 79.4771 19.2413 78.9398 18.756C78.4198 18.2707 77.6138 18.028 76.5218 18.028C75.7765 18.028 75.0398 18.1493 74.3118 18.392C73.6011 18.6173 72.9945 18.9293 72.4918 19.328L71.0358 16.494C71.7985 15.9567 72.7171 15.5407 73.7918 15.246C74.8665 14.9513 75.9585 14.804 77.0678 14.804C79.1998 14.804 80.8551 15.3067 82.0338 16.312C83.2125 17.3173 83.8018 18.886 83.8018 21.018V29H80.0058ZM75.7418 29.208C74.6498 29.208 73.7138 29.026 72.9338 28.662C72.1538 28.2807 71.5558 27.7693 71.1398 27.128C70.7238 26.4867 70.5158 25.7673 70.5158 24.97C70.5158 24.138 70.7151 23.41 71.1138 22.786C71.5298 22.162 72.1798 21.6767 73.0638 21.33C73.9478 20.966 75.1005 20.784 76.5218 20.784H80.2398V23.15H76.9638C76.0105 23.15 75.3518 23.306 74.9878 23.618C74.6411 23.93 74.4678 24.32 74.4678 24.788C74.4678 25.308 74.6671 25.724 75.0658 26.036C75.4818 26.3307 76.0451 26.478 76.7558 26.478C77.4318 26.478 78.0385 26.322 78.5758 26.01C79.1131 25.6807 79.5031 25.204 79.7458 24.58L80.3698 26.452C80.0751 27.3533 79.5378 28.038 78.7578 28.506C77.9778 28.974 76.9725 29.208 75.7418 29.208ZM89.0327 29V15.012H92.9067V18.964L92.3607 17.82C92.7767 16.832 93.444 16.0867 94.3627 15.584C95.2813 15.064 96.3993 14.804 97.7167 14.804V18.548C97.5433 18.5307 97.3873 18.522 97.2487 18.522C97.11 18.5047 96.9627 18.496 96.8067 18.496C95.6973 18.496 94.796 18.8167 94.1027 19.458C93.4267 20.082 93.0887 21.0613 93.0887 22.396V29H89.0327ZM107.891 29.208C106.245 29.208 104.962 28.792 104.043 27.96C103.125 27.1107 102.665 25.854 102.665 24.19V11.918H106.721V24.138C106.721 24.7273 106.877 25.1867 107.189 25.516C107.501 25.828 107.926 25.984 108.463 25.984C109.105 25.984 109.651 25.8107 110.101 25.464L111.193 28.324C110.777 28.6187 110.275 28.844 109.685 29C109.113 29.1387 108.515 29.208 107.891 29.208ZM100.507 18.444V15.324H110.205V18.444H100.507ZM115.316 29V10.8H123.194C124.823 10.8 126.227 11.0687 127.406 11.606C128.585 12.126 129.495 12.88 130.136 13.868C130.777 14.856 131.098 16.0347 131.098 17.404C131.098 18.756 130.777 19.926 130.136 20.914C129.495 21.902 128.585 22.6647 127.406 23.202C126.227 23.722 124.823 23.982 123.194 23.982H117.656L119.528 22.084V29H115.316ZM119.528 22.552L117.656 20.55H122.96C124.26 20.55 125.231 20.2727 125.872 19.718C126.513 19.1633 126.834 18.392 126.834 17.404C126.834 16.3987 126.513 15.6187 125.872 15.064C125.231 14.5093 124.26 14.232 122.96 14.232H117.656L119.528 12.23V22.552ZM135.633 29V9.70801H139.689V29H135.633ZM150.915 29.208C149.754 29.208 148.714 28.9827 147.795 28.532C146.894 28.0813 146.192 27.3967 145.689 26.478C145.187 25.542 144.935 24.3547 144.935 22.916V15.012H148.991V22.318C148.991 23.4793 149.234 24.3373 149.719 24.892C150.222 25.4293 150.924 25.698 151.825 25.698C152.449 25.698 153.004 25.568 153.489 25.308C153.975 25.0307 154.356 24.6147 154.633 24.06C154.911 23.488 155.049 22.7773 155.049 21.928V15.012H159.105V29H155.257V25.152L155.959 26.27C155.491 27.2407 154.798 27.9773 153.879 28.48C152.978 28.9653 151.99 29.208 150.915 29.208ZM169.129 29.208C167.933 29.208 166.78 29.0693 165.671 28.792C164.579 28.4973 163.712 28.1333 163.071 27.7L164.423 24.788C165.064 25.1867 165.818 25.516 166.685 25.776C167.569 26.0187 168.436 26.14 169.285 26.14C170.221 26.14 170.88 26.0273 171.261 25.802C171.66 25.5767 171.859 25.2647 171.859 24.866C171.859 24.5367 171.703 24.294 171.391 24.138C171.096 23.9647 170.698 23.8347 170.195 23.748C169.692 23.6613 169.138 23.5747 168.531 23.488C167.942 23.4013 167.344 23.2887 166.737 23.15C166.13 22.994 165.576 22.7687 165.073 22.474C164.57 22.1793 164.163 21.7807 163.851 21.278C163.556 20.7753 163.409 20.1253 163.409 19.328C163.409 18.444 163.66 17.664 164.163 16.988C164.683 16.312 165.428 15.7833 166.399 15.402C167.37 15.0033 168.531 14.804 169.883 14.804C170.836 14.804 171.807 14.908 172.795 15.116C173.783 15.324 174.606 15.6273 175.265 16.026L173.913 18.912C173.237 18.5133 172.552 18.2447 171.859 18.106C171.183 17.95 170.524 17.872 169.883 17.872C168.982 17.872 168.323 17.9933 167.907 18.236C167.491 18.4787 167.283 18.7907 167.283 19.172C167.283 19.5187 167.43 19.7787 167.725 19.952C168.037 20.1253 168.444 20.264 168.947 20.368C169.45 20.472 169.996 20.5673 170.585 20.654C171.192 20.7233 171.798 20.836 172.405 20.992C173.012 21.148 173.558 21.3733 174.043 21.668C174.546 21.9453 174.953 22.3353 175.265 22.838C175.577 23.3233 175.733 23.9647 175.733 24.762C175.733 25.6287 175.473 26.4 174.953 27.076C174.433 27.7347 173.679 28.2547 172.691 28.636C171.72 29.0173 170.533 29.208 169.129 29.208Z" fill="black"/>
<path d="M29 0H9C4.02944 0 0 4.02944 0 9V29C0 33.9706 4.02944 38 9 38H29C33.9706 38 38 33.9706 38 29V9C38 4.02944 33.9706 0 29 0Z" fill="url(#paint0_linear_1732_24)"/>
<path d="M27.9251 10C26.2178 10 24.8053 11.2452 24.5378 12.8777C24.5079 13.06 24.4883 13.2464 24.4883 13.4374C24.4883 13.8174 24.5523 14.1818 24.6664 14.5237C25.0005 15.5247 25.7815 16.3192 26.7739 16.6724C27.1342 16.801 27.5209 16.8748 27.9252 16.8748C28.0879 16.8748 28.2468 16.8593 28.4037 16.8376C30.0745 16.6038 31.361 15.1711 31.361 13.4375C31.3609 11.538 29.8228 10 27.9251 10Z" fill="#FC6E51"/>
<path d="M29.6414 13.9832H29.3261H28.4742V15.153C28.4742 15.4545 28.2273 15.6992 27.9253 15.6992C27.6244 15.6992 27.3792 15.4544 27.3792 15.153V14.6367V14.5242V13.9832H26.2114C25.9084 13.9832 25.6641 13.7389 25.6641 13.438C25.6641 13.1355 25.9083 12.8913 26.2114 12.8913H27.3792V12.8784V11.722C27.3792 11.4195 27.6244 11.1758 27.9253 11.1758C28.2274 11.1758 28.4742 11.4195 28.4742 11.722V12.8784V12.8913H29.6414C29.6538 12.8913 29.6642 12.8975 29.6761 12.898C29.9589 12.9176 30.1876 13.1479 30.1876 13.438C30.1876 13.739 29.941 13.9832 29.6414 13.9832Z" fill="#F4F8F8"/>
<path d="M23.75 26.7824C23.75 27.754 24.5378 28.5414 25.5094 28.5414C26.481 28.5414 27.2683 27.754 27.2683 26.7824C27.2683 25.8103 26.481 25.0225 25.5094 25.0225C24.5378 25.0225 23.75 25.8103 23.75 26.7824Z" fill="white"/>
<path d="M11.7773 26.7824C11.7773 27.754 12.5647 28.5414 13.5368 28.5414C14.5084 28.5414 15.2957 27.754 15.2957 26.7824C15.2957 25.8103 14.5084 25.0225 13.5368 25.0225C12.5647 25.0225 11.7773 25.8103 11.7773 26.7824Z" fill="white"/>
<path d="M10.8596 16.029L13.4224 24.7389H25.8516L28.1386 17.6562C28.0674 17.6603 27.9971 17.6675 27.9247 17.6675C27.0022 17.6675 26.1504 17.3671 25.455 16.8642H23.1188L23.3196 14.5235H23.8416C23.7491 14.176 23.6949 13.8132 23.6949 13.4372C23.6949 13.2467 23.712 13.0608 23.7362 12.8775H11.7864L10.9469 10.0381H10.934H9.08832H6V11.5363H9.53127L10.8596 16.029ZM21.6192 23.4054H18.1519L17.9536 21.0924H21.8169L21.6192 23.4054ZM21.8974 20.156H17.8737L17.6723 17.8008H22.0987L21.8974 20.156ZM23.039 17.8008H26.4387L25.7386 20.156H22.8371L23.039 17.8008ZM22.7571 21.0924H25.4603L24.7741 23.4054H22.5588L22.7571 21.0924ZM22.3792 14.5235L22.1789 16.8642H17.5924L17.392 14.5235H22.3792ZM17.2124 23.4054H14.6992L14.0569 21.0924H17.0146L17.2124 23.4054ZM16.9341 20.156H13.7967L13.1416 17.8008H16.7323L16.9341 20.156ZM16.4518 14.5235L16.6522 16.8642H12.965L12.2733 14.5235H16.4518Z" fill="#F4F8F8"/>
<defs>
<linearGradient id="paint0_linear_1732_24" x1="3.5625" y1="2.375" x2="34.4375" y2="37.4062" gradientUnits="userSpaceOnUse">
<stop stop-color="#3B4ED3"/>
<stop offset="0.739367" stop-color="#3C50E0"/>
</linearGradient>
</defs>
</svg>
