<svg width="177" height="38" viewBox="0 0 177 38" fill="none" xmlns="http://www.w3.org/2000/svg">
<path d="M59.868 29.312C58.464 29.312 57.1553 29.0867 55.942 28.636C54.746 28.168 53.706 27.5093 52.822 26.66C51.938 25.8107 51.2447 24.814 50.742 23.67C50.2567 22.526 50.014 21.2693 50.014 19.9C50.014 18.5307 50.2567 17.274 50.742 16.13C51.2447 14.986 51.938 13.9893 52.822 13.14C53.7233 12.2907 54.772 11.6407 55.968 11.19C57.164 10.722 58.4727 10.488 59.894 10.488C61.4713 10.488 62.8927 10.7653 64.158 11.32C65.4407 11.8573 66.5153 12.6547 67.382 13.712L64.678 16.208C64.054 15.4973 63.3607 14.9687 62.598 14.622C61.8353 14.258 61.0033 14.076 60.102 14.076C59.2527 14.076 58.4727 14.2147 57.762 14.492C57.0513 14.7693 56.436 15.168 55.916 15.688C55.396 16.208 54.9887 16.8233 54.694 17.534C54.4167 18.2447 54.278 19.0333 54.278 19.9C54.278 20.7667 54.4167 21.5553 54.694 22.266C54.9887 22.9767 55.396 23.592 55.916 24.112C56.436 24.632 57.0513 25.0307 57.762 25.308C58.4727 25.5853 59.2527 25.724 60.102 25.724C61.0033 25.724 61.8353 25.5507 62.598 25.204C63.3607 24.84 64.054 24.294 64.678 23.566L67.382 26.062C66.5153 27.1193 65.4407 27.9253 64.158 28.48C62.8927 29.0347 61.4627 29.312 59.868 29.312ZM80.0042 29V26.27L79.7442 25.672V20.784C79.7442 19.9173 79.4755 19.2413 78.9382 18.756C78.4182 18.2707 77.6122 18.028 76.5202 18.028C75.7749 18.028 75.0382 18.1493 74.3102 18.392C73.5995 18.6173 72.9929 18.9293 72.4902 19.328L71.0342 16.494C71.7969 15.9567 72.7155 15.5407 73.7902 15.246C74.8649 14.9513 75.9569 14.804 77.0662 14.804C79.1982 14.804 80.8535 15.3067 82.0322 16.312C83.2109 17.3173 83.8002 18.886 83.8002 21.018V29H80.0042ZM75.7402 29.208C74.6482 29.208 73.7122 29.026 72.9322 28.662C72.1522 28.2807 71.5542 27.7693 71.1382 27.128C70.7222 26.4867 70.5142 25.7673 70.5142 24.97C70.5142 24.138 70.7135 23.41 71.1122 22.786C71.5282 22.162 72.1782 21.6767 73.0622 21.33C73.9462 20.966 75.0989 20.784 76.5202 20.784H80.2382V23.15H76.9622C76.0089 23.15 75.3502 23.306 74.9862 23.618C74.6395 23.93 74.4662 24.32 74.4662 24.788C74.4662 25.308 74.6655 25.724 75.0642 26.036C75.4802 26.3307 76.0435 26.478 76.7542 26.478C77.4302 26.478 78.0369 26.322 78.5742 26.01C79.1115 25.6807 79.5015 25.204 79.7442 24.58L80.3682 26.452C80.0735 27.3533 79.5362 28.038 78.7562 28.506C77.9762 28.974 76.9709 29.208 75.7402 29.208ZM89.0311 29V15.012H92.9051V18.964L92.3591 17.82C92.7751 16.832 93.4424 16.0867 94.3611 15.584C95.2797 15.064 96.3977 14.804 97.7151 14.804V18.548C97.5417 18.5307 97.3857 18.522 97.2471 18.522C97.1084 18.5047 96.9611 18.496 96.8051 18.496C95.6957 18.496 94.7944 18.8167 94.1011 19.458C93.4251 20.082 93.0871 21.0613 93.0871 22.396V29H89.0311ZM107.889 29.208C106.243 29.208 104.96 28.792 104.041 27.96C103.123 27.1107 102.663 25.854 102.663 24.19V11.918H106.719V24.138C106.719 24.7273 106.875 25.1867 107.187 25.516C107.499 25.828 107.924 25.984 108.461 25.984C109.103 25.984 109.649 25.8107 110.099 25.464L111.191 28.324C110.775 28.6187 110.273 28.844 109.683 29C109.111 29.1387 108.513 29.208 107.889 29.208ZM100.505 18.444V15.324H110.203V18.444H100.505ZM115.314 29V10.8H123.192C124.821 10.8 126.225 11.0687 127.404 11.606C128.583 12.126 129.493 12.88 130.134 13.868C130.775 14.856 131.096 16.0347 131.096 17.404C131.096 18.756 130.775 19.926 130.134 20.914C129.493 21.902 128.583 22.6647 127.404 23.202C126.225 23.722 124.821 23.982 123.192 23.982H117.654L119.526 22.084V29H115.314ZM119.526 22.552L117.654 20.55H122.958C124.258 20.55 125.229 20.2727 125.87 19.718C126.511 19.1633 126.832 18.392 126.832 17.404C126.832 16.3987 126.511 15.6187 125.87 15.064C125.229 14.5093 124.258 14.232 122.958 14.232H117.654L119.526 12.23V22.552ZM135.631 29V9.708H139.687V29H135.631ZM150.913 29.208C149.752 29.208 148.712 28.9827 147.793 28.532C146.892 28.0813 146.19 27.3967 145.687 26.478C145.185 25.542 144.933 24.3547 144.933 22.916V15.012H148.989V22.318C148.989 23.4793 149.232 24.3373 149.717 24.892C150.22 25.4293 150.922 25.698 151.823 25.698C152.447 25.698 153.002 25.568 153.487 25.308C153.973 25.0307 154.354 24.6147 154.631 24.06C154.909 23.488 155.047 22.7773 155.047 21.928V15.012H159.103V29H155.255V25.152L155.957 26.27C155.489 27.2407 154.796 27.9773 153.877 28.48C152.976 28.9653 151.988 29.208 150.913 29.208ZM169.127 29.208C167.931 29.208 166.778 29.0693 165.669 28.792C164.577 28.4973 163.71 28.1333 163.069 27.7L164.421 24.788C165.062 25.1867 165.816 25.516 166.683 25.776C167.567 26.0187 168.434 26.14 169.283 26.14C170.219 26.14 170.878 26.0273 171.259 25.802C171.658 25.5767 171.857 25.2647 171.857 24.866C171.857 24.5367 171.701 24.294 171.389 24.138C171.094 23.9647 170.696 23.8347 170.193 23.748C169.69 23.6613 169.136 23.5747 168.529 23.488C167.94 23.4013 167.342 23.2887 166.735 23.15C166.128 22.994 165.574 22.7687 165.071 22.474C164.568 22.1793 164.161 21.7807 163.849 21.278C163.554 20.7753 163.407 20.1253 163.407 19.328C163.407 18.444 163.658 17.664 164.161 16.988C164.681 16.312 165.426 15.7833 166.397 15.402C167.368 15.0033 168.529 14.804 169.881 14.804C170.834 14.804 171.805 14.908 172.793 15.116C173.781 15.324 174.604 15.6273 175.263 16.026L173.911 18.912C173.235 18.5133 172.55 18.2447 171.857 18.106C171.181 17.95 170.522 17.872 169.881 17.872C168.98 17.872 168.321 17.9933 167.905 18.236C167.489 18.4787 167.281 18.7907 167.281 19.172C167.281 19.5187 167.428 19.7787 167.723 19.952C168.035 20.1253 168.442 20.264 168.945 20.368C169.448 20.472 169.994 20.5673 170.583 20.654C171.19 20.7233 171.796 20.836 172.403 20.992C173.01 21.148 173.556 21.3733 174.041 21.668C174.544 21.9453 174.951 22.3353 175.263 22.838C175.575 23.3233 175.731 23.9647 175.731 24.762C175.731 25.6287 175.471 26.4 174.951 27.076C174.431 27.7347 173.677 28.2547 172.689 28.636C171.718 29.0173 170.531 29.208 169.127 29.208Z" fill="white"/>
<rect width="38" height="38" rx="9" fill="url(#paint0_linear_1617_54)"/>
<path d="M27.9251 10C26.2178 10 24.8053 11.2452 24.5378 12.8777C24.5079 13.06 24.4883 13.2464 24.4883 13.4374C24.4883 13.8174 24.5523 14.1818 24.6664 14.5237C25.0005 15.5247 25.7815 16.3192 26.7739 16.6724C27.1342 16.801 27.5209 16.8748 27.9252 16.8748C28.0879 16.8748 28.2468 16.8593 28.4037 16.8376C30.0745 16.6038 31.361 15.1711 31.361 13.4375C31.3609 11.538 29.8228 10 27.9251 10Z" fill="#FC6E51"/>
<path d="M29.6414 13.9827H29.3261H28.4742V15.1525C28.4742 15.454 28.2273 15.6987 27.9253 15.6987C27.6244 15.6987 27.3792 15.4539 27.3792 15.1525V14.6362V14.5237V13.9827H26.2114C25.9084 13.9827 25.6641 13.7384 25.6641 13.4375C25.6641 13.135 25.9083 12.8908 26.2114 12.8908H27.3792V12.8779V11.7215C27.3792 11.419 27.6244 11.1753 27.9253 11.1753C28.2274 11.1753 28.4742 11.419 28.4742 11.7215V12.8779V12.8908H29.6414C29.6538 12.8908 29.6642 12.897 29.6761 12.8975C29.9589 12.9171 30.1876 13.1474 30.1876 13.4375C30.1876 13.7385 29.941 13.9827 29.6414 13.9827Z" fill="#F4F8F8"/>
<path d="M23.75 26.7824C23.75 27.754 24.5378 28.5414 25.5094 28.5414C26.481 28.5414 27.2683 27.754 27.2683 26.7824C27.2683 25.8103 26.481 25.0225 25.5094 25.0225C24.5378 25.0225 23.75 25.8103 23.75 26.7824Z" fill="white"/>
<path d="M11.7773 26.7824C11.7773 27.754 12.5647 28.5414 13.5368 28.5414C14.5084 28.5414 15.2957 27.754 15.2957 26.7824C15.2957 25.8103 14.5084 25.0225 13.5368 25.0225C12.5647 25.0225 11.7773 25.8103 11.7773 26.7824Z" fill="white"/>
<path d="M10.8596 16.029L13.4224 24.7389H25.8516L28.1386 17.6562C28.0674 17.6603 27.9971 17.6675 27.9247 17.6675C27.0022 17.6675 26.1504 17.3671 25.455 16.8642H23.1188L23.3196 14.5235H23.8416C23.7491 14.176 23.6949 13.8132 23.6949 13.4372C23.6949 13.2467 23.712 13.0608 23.7362 12.8775H11.7864L10.9469 10.0381H10.934H9.08832H6V11.5363H9.53127L10.8596 16.029ZM21.6192 23.4054H18.1519L17.9536 21.0924H21.8169L21.6192 23.4054ZM21.8974 20.156H17.8737L17.6723 17.8008H22.0987L21.8974 20.156ZM23.039 17.8008H26.4387L25.7386 20.156H22.8371L23.039 17.8008ZM22.7571 21.0924H25.4603L24.7741 23.4054H22.5588L22.7571 21.0924ZM22.3792 14.5235L22.1789 16.8642H17.5924L17.392 14.5235H22.3792ZM17.2124 23.4054H14.6992L14.0569 21.0924H17.0146L17.2124 23.4054ZM16.9341 20.156H13.7967L13.1416 17.8008H16.7323L16.9341 20.156ZM16.4518 14.5235L16.6522 16.8642H12.965L12.2733 14.5235H16.4518Z" fill="#F4F8F8"/>
<defs>
<linearGradient id="paint0_linear_1617_54" x1="3.5625" y1="2.375" x2="34.4375" y2="37.4062" gradientUnits="userSpaceOnUse">
<stop stop-color="#3B4ED3"/>
<stop offset="0.739367" stop-color="#3C50E0"/>
</linearGradient>
</defs>
</svg>
