<svg width="38" height="38" viewBox="0 0 38 38" fill="none" xmlns="http://www.w3.org/2000/svg">
<rect width="38" height="38" rx="9" fill="url(#paint0_linear_1624_114)"/>
<path d="M27.9251 10C26.2178 10 24.8053 11.2452 24.5378 12.8777C24.5079 13.06 24.4883 13.2464 24.4883 13.4374C24.4883 13.8174 24.5523 14.1818 24.6664 14.5237C25.0005 15.5247 25.7815 16.3192 26.7739 16.6724C27.1342 16.801 27.5209 16.8748 27.9252 16.8748C28.0879 16.8748 28.2468 16.8593 28.4037 16.8376C30.0745 16.6038 31.361 15.1711 31.361 13.4375C31.3609 11.538 29.8228 10 27.9251 10Z" fill="#FC6E51"/>
<path d="M29.6414 13.9827H29.3261H28.4742V15.1525C28.4742 15.454 28.2273 15.6987 27.9253 15.6987C27.6244 15.6987 27.3792 15.4539 27.3792 15.1525V14.6362V14.5237V13.9827H26.2114C25.9084 13.9827 25.6641 13.7384 25.6641 13.4375C25.6641 13.135 25.9083 12.8908 26.2114 12.8908H27.3792V12.8779V11.7215C27.3792 11.419 27.6244 11.1753 27.9253 11.1753C28.2274 11.1753 28.4742 11.419 28.4742 11.7215V12.8779V12.8908H29.6414C29.6538 12.8908 29.6642 12.897 29.6761 12.8975C29.9589 12.9171 30.1876 13.1474 30.1876 13.4375C30.1876 13.7385 29.941 13.9827 29.6414 13.9827Z" fill="#F4F8F8"/>
<path d="M23.75 26.7824C23.75 27.754 24.5378 28.5414 25.5094 28.5414C26.481 28.5414 27.2683 27.754 27.2683 26.7824C27.2683 25.8103 26.481 25.0225 25.5094 25.0225C24.5378 25.0225 23.75 25.8103 23.75 26.7824Z" fill="white"/>
<path d="M11.7773 26.7824C11.7773 27.754 12.5647 28.5414 13.5368 28.5414C14.5084 28.5414 15.2957 27.754 15.2957 26.7824C15.2957 25.8103 14.5084 25.0225 13.5368 25.0225C12.5647 25.0225 11.7773 25.8103 11.7773 26.7824Z" fill="white"/>
<path d="M10.8596 16.029L13.4224 24.7389H25.8516L28.1386 17.6562C28.0674 17.6603 27.9971 17.6675 27.9247 17.6675C27.0022 17.6675 26.1504 17.3671 25.455 16.8642H23.1188L23.3196 14.5235H23.8416C23.7491 14.176 23.6949 13.8132 23.6949 13.4372C23.6949 13.2467 23.712 13.0608 23.7362 12.8775H11.7864L10.9469 10.0381H10.934H9.08832H6V11.5363H9.53127L10.8596 16.029ZM21.6192 23.4054H18.1519L17.9536 21.0924H21.8169L21.6192 23.4054ZM21.8974 20.156H17.8737L17.6723 17.8008H22.0987L21.8974 20.156ZM23.039 17.8008H26.4387L25.7386 20.156H22.8371L23.039 17.8008ZM22.7571 21.0924H25.4603L24.7741 23.4054H22.5588L22.7571 21.0924ZM22.3792 14.5235L22.1789 16.8642H17.5924L17.392 14.5235H22.3792ZM17.2124 23.4054H14.6992L14.0569 21.0924H17.0146L17.2124 23.4054ZM16.9341 20.156H13.7967L13.1416 17.8008H16.7323L16.9341 20.156ZM16.4518 14.5235L16.6522 16.8642H12.965L12.2733 14.5235H16.4518Z" fill="#F4F8F8"/>
<defs>
<linearGradient id="paint0_linear_1624_114" x1="3.5625" y1="2.375" x2="34.4375" y2="37.4062" gradientUnits="userSpaceOnUse">
<stop stop-color="#3B4ED3"/>
<stop offset="0.739367" stop-color="#3C50E0"/>
</linearGradient>
</defs>
</svg>
