<svg width="163" height="44" viewBox="0 0 163 44" fill="none" xmlns="http://www.w3.org/2000/svg">
<path d="M55.992 22V5.2H59.88V18.832H68.304V22H55.992ZM77.7495 22.192C76.3735 22.192 75.1495 21.904 74.0775 21.328C73.0215 20.752 72.1815 19.968 71.5575 18.976C70.9495 17.968 70.6455 16.824 70.6455 15.544C70.6455 14.248 70.9495 13.104 71.5575 12.112C72.1815 11.104 73.0215 10.32 74.0775 9.76C75.1495 9.184 76.3735 8.896 77.7495 8.896C79.1095 8.896 80.3255 9.184 81.3975 9.76C82.4695 10.32 83.3095 11.096 83.9175 12.088C84.5255 13.08 84.8295 14.232 84.8295 15.544C84.8295 16.824 84.5255 17.968 83.9175 18.976C83.3095 19.968 82.4695 20.752 81.3975 21.328C80.3255 21.904 79.1095 22.192 77.7495 22.192ZM77.7495 19.12C78.3735 19.12 78.9335 18.976 79.4295 18.688C79.9255 18.4 80.3175 17.992 80.6055 17.464C80.8935 16.92 81.0375 16.28 81.0375 15.544C81.0375 14.792 80.8935 14.152 80.6055 13.624C80.3175 13.096 79.9255 12.688 79.4295 12.4C78.9335 12.112 78.3735 11.968 77.7495 11.968C77.1255 11.968 76.5655 12.112 76.0695 12.4C75.5735 12.688 75.1735 13.096 74.8695 13.624C74.5815 14.152 74.4375 14.792 74.4375 15.544C74.4375 16.28 74.5815 16.92 74.8695 17.464C75.1735 17.992 75.5735 18.4 76.0695 18.688C76.5655 18.976 77.1255 19.12 77.7495 19.12ZM94.8441 26.848C93.6281 26.848 92.4521 26.696 91.3161 26.392C90.1961 26.104 89.2601 25.664 88.5081 25.072L89.9961 22.384C90.5401 22.832 91.2281 23.184 92.0601 23.44C92.9081 23.712 93.7401 23.848 94.5561 23.848C95.8841 23.848 96.8441 23.552 97.4361 22.96C98.0441 22.368 98.3481 21.488 98.3481 20.32V18.376L98.5881 15.136L98.5401 11.872V9.088H102.092V19.84C102.092 22.24 101.468 24.008 100.22 25.144C98.9721 26.28 97.1801 26.848 94.8441 26.848ZM94.2681 21.376C93.0681 21.376 91.9801 21.12 91.0041 20.608C90.0441 20.08 89.2681 19.352 88.6761 18.424C88.1001 17.48 87.8121 16.384 87.8121 15.136C87.8121 13.872 88.1001 12.776 88.6761 11.848C89.2681 10.904 90.0441 10.176 91.0041 9.664C91.9801 9.152 93.0681 8.896 94.2681 8.896C95.3561 8.896 96.3161 9.12 97.1481 9.568C97.9801 10 98.6281 10.68 99.0921 11.608C99.5561 12.52 99.7881 13.696 99.7881 15.136C99.7881 16.56 99.5561 17.736 99.0921 18.664C98.6281 19.576 97.9801 20.256 97.1481 20.704C96.3161 21.152 95.3561 21.376 94.2681 21.376ZM95.0121 18.304C95.6681 18.304 96.2521 18.176 96.7641 17.92C97.2761 17.648 97.6761 17.272 97.9641 16.792C98.2521 16.312 98.3961 15.76 98.3961 15.136C98.3961 14.496 98.2521 13.944 97.9641 13.48C97.6761 13 97.2761 12.632 96.7641 12.376C96.2521 12.104 95.6681 11.968 95.0121 11.968C94.3561 11.968 93.7721 12.104 93.2601 12.376C92.7481 12.632 92.3401 13 92.0361 13.48C91.7481 13.944 91.6041 14.496 91.6041 15.136C91.6041 15.76 91.7481 16.312 92.0361 16.792C92.3401 17.272 92.7481 17.648 93.2601 17.92C93.7721 18.176 94.3561 18.304 95.0121 18.304ZM107.017 22V9.088H110.761V22H107.017ZM108.889 7.288C108.201 7.288 107.641 7.088 107.209 6.688C106.777 6.288 106.561 5.792 106.561 5.2C106.561 4.608 106.777 4.112 107.209 3.712C107.641 3.312 108.201 3.112 108.889 3.112C109.577 3.112 110.137 3.304 110.569 3.688C111.001 4.056 111.217 4.536 111.217 5.128C111.217 5.752 111.001 6.272 110.569 6.688C110.153 7.088 109.593 7.288 108.889 7.288ZM121.916 22.192C120.524 22.192 119.284 21.912 118.196 21.352C117.108 20.776 116.252 19.984 115.628 18.976C115.02 17.968 114.716 16.824 114.716 15.544C114.716 14.248 115.02 13.104 115.628 12.112C116.252 11.104 117.108 10.32 118.196 9.76C119.284 9.184 120.524 8.896 121.916 8.896C123.276 8.896 124.46 9.184 125.468 9.76C126.476 10.32 127.22 11.128 127.7 12.184L124.796 13.744C124.46 13.136 124.036 12.688 123.524 12.4C123.028 12.112 122.484 11.968 121.892 11.968C121.252 11.968 120.676 12.112 120.164 12.4C119.652 12.688 119.244 13.096 118.94 13.624C118.652 14.152 118.508 14.792 118.508 15.544C118.508 16.296 118.652 16.936 118.94 17.464C119.244 17.992 119.652 18.4 120.164 18.688C120.676 18.976 121.252 19.12 121.892 19.12C122.484 19.12 123.028 18.984 123.524 18.712C124.036 18.424 124.46 17.968 124.796 17.344L127.7 18.928C127.22 19.968 126.476 20.776 125.468 21.352C124.46 21.912 123.276 22.192 121.916 22.192ZM129.358 22L135.142 14.416L135.07 16.48L129.526 9.088H133.726L137.23 13.912L135.646 13.96L139.27 9.088H143.254L137.686 16.408V14.392L143.446 22H139.198L135.526 16.864L137.086 17.08L133.438 22H129.358Z" fill="white"/>
<path d="M58.708 41.096C58.068 41.096 57.456 41 56.872 40.808C56.288 40.608 55.828 40.352 55.492 40.04L55.936 39.104C56.256 39.384 56.664 39.616 57.16 39.8C57.656 39.984 58.172 40.076 58.708 40.076C59.196 40.076 59.592 40.02 59.896 39.908C60.2 39.796 60.424 39.644 60.568 39.452C60.712 39.252 60.784 39.028 60.784 38.78C60.784 38.492 60.688 38.26 60.496 38.084C60.312 37.908 60.068 37.768 59.764 37.664C59.468 37.552 59.14 37.456 58.78 37.376C58.42 37.296 58.056 37.204 57.688 37.1C57.328 36.988 56.996 36.848 56.692 36.68C56.396 36.512 56.156 36.288 55.972 36.008C55.788 35.72 55.696 35.352 55.696 34.904C55.696 34.472 55.808 34.076 56.032 33.716C56.264 33.348 56.616 33.056 57.088 32.84C57.568 32.616 58.176 32.504 58.912 32.504C59.4 32.504 59.884 32.568 60.364 32.696C60.844 32.824 61.26 33.008 61.612 33.248L61.216 34.208C60.856 33.968 60.476 33.796 60.076 33.692C59.676 33.58 59.288 33.524 58.912 33.524C58.44 33.524 58.052 33.584 57.748 33.704C57.444 33.824 57.22 33.984 57.076 34.184C56.94 34.384 56.872 34.608 56.872 34.856C56.872 35.152 56.964 35.388 57.148 35.564C57.34 35.74 57.584 35.88 57.88 35.984C58.184 36.088 58.516 36.184 58.876 36.272C59.236 36.352 59.596 36.444 59.956 36.548C60.324 36.652 60.656 36.788 60.952 36.956C61.256 37.124 61.5 37.348 61.684 37.628C61.868 37.908 61.96 38.268 61.96 38.708C61.96 39.132 61.844 39.528 61.612 39.896C61.38 40.256 61.02 40.548 60.532 40.772C60.052 40.988 59.444 41.096 58.708 41.096ZM65.7291 41.072C65.0891 41.072 64.5931 40.9 64.2411 40.556C63.8891 40.212 63.7131 39.72 63.7131 39.08V33.248H64.8651V39.032C64.8651 39.376 64.9491 39.64 65.1171 39.824C65.2931 40.008 65.5411 40.1 65.8611 40.1C66.2211 40.1 66.5211 40 66.7611 39.8L67.1211 40.628C66.9451 40.78 66.7331 40.892 66.4851 40.964C66.2451 41.036 65.9931 41.072 65.7291 41.072ZM62.6331 35.588V34.64H66.6891V35.588H62.6331ZM68.5139 41V34.64H69.6659V41H68.5139ZM69.0899 33.416C68.8659 33.416 68.6779 33.344 68.5259 33.2C68.3819 33.056 68.3099 32.88 68.3099 32.672C68.3099 32.456 68.3819 32.276 68.5259 32.132C68.6779 31.988 68.8659 31.916 69.0899 31.916C69.3139 31.916 69.4979 31.988 69.6419 32.132C69.7939 32.268 69.8699 32.44 69.8699 32.648C69.8699 32.864 69.7979 33.048 69.6539 33.2C69.5099 33.344 69.3219 33.416 69.0899 33.416ZM74.6374 41.072C73.9894 41.072 73.4094 40.932 72.8974 40.652C72.3934 40.372 71.9974 39.988 71.7094 39.5C71.4214 39.012 71.2774 38.452 71.2774 37.82C71.2774 37.188 71.4214 36.628 71.7094 36.14C71.9974 35.652 72.3934 35.272 72.8974 35C73.4094 34.72 73.9894 34.58 74.6374 34.58C75.2134 34.58 75.7254 34.696 76.1734 34.928C76.6294 35.152 76.9814 35.488 77.2294 35.936L76.3534 36.5C76.1454 36.188 75.8894 35.96 75.5854 35.816C75.2894 35.664 74.9694 35.588 74.6254 35.588C74.2094 35.588 73.8374 35.68 73.5094 35.864C73.1814 36.048 72.9214 36.308 72.7294 36.644C72.5374 36.972 72.4414 37.364 72.4414 37.82C72.4414 38.276 72.5374 38.672 72.7294 39.008C72.9214 39.344 73.1814 39.604 73.5094 39.788C73.8374 39.972 74.2094 40.064 74.6254 40.064C74.9694 40.064 75.2894 39.992 75.5854 39.848C75.8894 39.696 76.1454 39.464 76.3534 39.152L77.2294 39.704C76.9814 40.144 76.6294 40.484 76.1734 40.724C75.7254 40.956 75.2134 41.072 74.6374 41.072ZM79.5749 39.464L79.5989 37.988L83.2589 34.64H84.6509L81.8429 37.4L81.2189 37.928L79.5749 39.464ZM78.6389 41V32.096H79.7909V41H78.6389ZM83.4989 41L81.0029 37.904L81.7469 36.98L84.9149 41H83.4989ZM85.9696 43.4C85.6656 43.4 85.3696 43.348 85.0816 43.244C84.7936 43.148 84.5456 43.004 84.3376 42.812L84.8296 41.948C84.9896 42.1 85.1656 42.216 85.3576 42.296C85.5496 42.376 85.7536 42.416 85.9696 42.416C86.2496 42.416 86.4816 42.344 86.6656 42.2C86.8496 42.056 87.0216 41.8 87.1816 41.432L87.5776 40.556L87.6976 40.412L90.1936 34.64H91.3216L88.2376 41.636C88.0536 42.084 87.8456 42.436 87.6136 42.692C87.3896 42.948 87.1416 43.128 86.8696 43.232C86.5976 43.344 86.2976 43.4 85.9696 43.4ZM87.4816 41.204L84.5776 34.64H85.7776L88.2496 40.304L87.4816 41.204ZM94.5153 41L98.3193 32.6H99.5073L103.323 41H102.063L98.6673 33.272H99.1473L95.7513 41H94.5153ZM96.1353 38.9L96.4593 37.94H101.187L101.535 38.9H96.1353ZM106.978 41.072C106.362 41.072 105.81 40.936 105.322 40.664C104.842 40.392 104.462 40.012 104.182 39.524C103.902 39.036 103.762 38.468 103.762 37.82C103.762 37.172 103.902 36.608 104.182 36.128C104.462 35.64 104.842 35.26 105.322 34.988C105.81 34.716 106.362 34.58 106.978 34.58C107.514 34.58 107.998 34.7 108.43 34.94C108.862 35.18 109.206 35.54 109.462 36.02C109.726 36.5 109.858 37.1 109.858 37.82C109.858 38.54 109.73 39.14 109.474 39.62C109.226 40.1 108.886 40.464 108.454 40.712C108.022 40.952 107.53 41.072 106.978 41.072ZM107.074 40.064C107.474 40.064 107.834 39.972 108.154 39.788C108.482 39.604 108.738 39.344 108.922 39.008C109.114 38.664 109.21 38.268 109.21 37.82C109.21 37.364 109.114 36.972 108.922 36.644C108.738 36.308 108.482 36.048 108.154 35.864C107.834 35.68 107.474 35.588 107.074 35.588C106.666 35.588 106.302 35.68 105.982 35.864C105.662 36.048 105.406 36.308 105.214 36.644C105.022 36.972 104.926 37.364 104.926 37.82C104.926 38.268 105.022 38.664 105.214 39.008C105.406 39.344 105.662 39.604 105.982 39.788C106.302 39.972 106.666 40.064 107.074 40.064ZM109.246 41V39.284L109.318 37.808L109.198 36.332V32.096H110.35V41H109.246ZM115.158 41.072C114.542 41.072 113.99 40.936 113.502 40.664C113.022 40.392 112.642 40.012 112.362 39.524C112.082 39.036 111.942 38.468 111.942 37.82C111.942 37.172 112.082 36.608 112.362 36.128C112.642 35.64 113.022 35.26 113.502 34.988C113.99 34.716 114.542 34.58 115.158 34.58C115.694 34.58 116.178 34.7 116.61 34.94C117.042 35.18 117.386 35.54 117.642 36.02C117.906 36.5 118.038 37.1 118.038 37.82C118.038 38.54 117.91 39.14 117.654 39.62C117.406 40.1 117.066 40.464 116.634 40.712C116.202 40.952 115.71 41.072 115.158 41.072ZM115.254 40.064C115.654 40.064 116.014 39.972 116.334 39.788C116.662 39.604 116.918 39.344 117.102 39.008C117.294 38.664 117.39 38.268 117.39 37.82C117.39 37.364 117.294 36.972 117.102 36.644C116.918 36.308 116.662 36.048 116.334 35.864C116.014 35.68 115.654 35.588 115.254 35.588C114.846 35.588 114.482 35.68 114.162 35.864C113.842 36.048 113.586 36.308 113.394 36.644C113.202 36.972 113.106 37.364 113.106 37.82C113.106 38.268 113.202 38.664 113.394 39.008C113.586 39.344 113.842 39.604 114.162 39.788C114.482 39.972 114.846 40.064 115.254 40.064ZM117.426 41V39.284L117.497 37.808L117.378 36.332V32.096H118.53V41H117.426ZM126.116 41.072C125.476 41.072 124.98 40.9 124.628 40.556C124.276 40.212 124.1 39.72 124.1 39.08V33.248H125.252V39.032C125.252 39.376 125.336 39.64 125.504 39.824C125.68 40.008 125.928 40.1 126.248 40.1C126.608 40.1 126.908 40 127.148 39.8L127.508 40.628C127.332 40.78 127.12 40.892 126.872 40.964C126.632 41.036 126.38 41.072 126.116 41.072ZM123.02 35.588V34.64H127.076V35.588H123.02ZM131.414 41.072C130.774 41.072 130.206 40.932 129.71 40.652C129.214 40.372 128.822 39.988 128.534 39.5C128.246 39.004 128.102 38.444 128.102 37.82C128.102 37.188 128.246 36.628 128.534 36.14C128.822 35.652 129.214 35.272 129.71 35C130.206 34.72 130.774 34.58 131.414 34.58C132.046 34.58 132.61 34.72 133.106 35C133.61 35.272 134.002 35.652 134.282 36.14C134.57 36.62 134.714 37.18 134.714 37.82C134.714 38.452 134.57 39.012 134.282 39.5C134.002 39.988 133.61 40.372 133.106 40.652C132.61 40.932 132.046 41.072 131.414 41.072ZM131.414 40.064C131.822 40.064 132.186 39.972 132.506 39.788C132.834 39.604 133.09 39.344 133.274 39.008C133.458 38.664 133.55 38.268 133.55 37.82C133.55 37.364 133.458 36.972 133.274 36.644C133.09 36.308 132.834 36.048 132.506 35.864C132.186 35.68 131.822 35.588 131.414 35.588C131.006 35.588 130.642 35.68 130.322 35.864C130.002 36.048 129.746 36.308 129.554 36.644C129.362 36.972 129.266 37.364 129.266 37.82C129.266 38.268 129.362 38.664 129.554 39.008C129.746 39.344 130.002 39.604 130.322 39.788C130.642 39.972 131.006 40.064 131.414 40.064ZM142.302 41.072C141.654 41.072 141.074 40.932 140.562 40.652C140.058 40.372 139.662 39.988 139.374 39.5C139.086 39.012 138.942 38.452 138.942 37.82C138.942 37.188 139.086 36.628 139.374 36.14C139.662 35.652 140.058 35.272 140.562 35C141.074 34.72 141.654 34.58 142.302 34.58C142.878 34.58 143.39 34.696 143.838 34.928C144.294 35.152 144.646 35.488 144.894 35.936L144.018 36.5C143.81 36.188 143.554 35.96 143.25 35.816C142.954 35.664 142.634 35.588 142.29 35.588C141.874 35.588 141.502 35.68 141.174 35.864C140.846 36.048 140.586 36.308 140.394 36.644C140.202 36.972 140.106 37.364 140.106 37.82C140.106 38.276 140.202 38.672 140.394 39.008C140.586 39.344 140.846 39.604 141.174 39.788C141.502 39.972 141.874 40.064 142.29 40.064C142.634 40.064 142.954 39.992 143.25 39.848C143.554 39.696 143.81 39.464 144.018 39.152L144.894 39.704C144.646 40.144 144.294 40.484 143.838 40.724C143.39 40.956 142.878 41.072 142.302 41.072ZM150.333 41V39.656L150.273 39.404V37.112C150.273 36.624 150.129 36.248 149.841 35.984C149.561 35.712 149.137 35.576 148.569 35.576C148.193 35.576 147.825 35.64 147.465 35.768C147.105 35.888 146.801 36.052 146.553 36.26L146.073 35.396C146.401 35.132 146.793 34.932 147.249 34.796C147.713 34.652 148.197 34.58 148.701 34.58C149.573 34.58 150.245 34.792 150.717 35.216C151.189 35.64 151.425 36.288 151.425 37.16V41H150.333ZM148.245 41.072C147.773 41.072 147.357 40.992 146.997 40.832C146.645 40.672 146.373 40.452 146.181 40.172C145.989 39.884 145.893 39.56 145.893 39.2C145.893 38.856 145.973 38.544 146.133 38.264C146.301 37.984 146.569 37.76 146.937 37.592C147.313 37.424 147.817 37.34 148.449 37.34H150.465V38.168H148.497C147.921 38.168 147.533 38.264 147.333 38.456C147.133 38.648 147.033 38.88 147.033 39.152C147.033 39.464 147.157 39.716 147.405 39.908C147.653 40.092 147.997 40.184 148.437 40.184C148.869 40.184 149.245 40.088 149.565 39.896C149.893 39.704 150.129 39.424 150.273 39.056L150.501 39.848C150.349 40.224 150.081 40.524 149.697 40.748C149.313 40.964 148.829 41.072 148.245 41.072ZM153.557 41V34.64H154.661V36.368L154.553 35.936C154.729 35.496 155.025 35.16 155.441 34.928C155.857 34.696 156.369 34.58 156.977 34.58V35.696C156.929 35.688 156.881 35.684 156.833 35.684C156.793 35.684 156.753 35.684 156.713 35.684C156.097 35.684 155.609 35.868 155.249 36.236C154.889 36.604 154.709 37.136 154.709 37.832V41H153.557ZM160.839 41.072C160.199 41.072 159.703 40.9 159.351 40.556C158.999 40.212 158.823 39.72 158.823 39.08V33.248H159.975V39.032C159.975 39.376 160.059 39.64 160.227 39.824C160.403 40.008 160.651 40.1 160.971 40.1C161.331 40.1 161.631 40 161.871 39.8L162.231 40.628C162.055 40.78 161.843 40.892 161.595 40.964C161.355 41.036 161.103 41.072 160.839 41.072ZM157.743 35.588V34.64H161.799V35.588H157.743Z" fill="white"/>
<rect y="2" width="40" height="40" rx="8" fill="url(#paint0_linear_1617_54)"/>
<path d="M32.2591 21.8849C32.2591 19.125 31.3362 16.4443 29.6373 14.2693C27.9384 12.0943 25.561 10.5497 22.8833 9.88141" stroke="white" stroke-width="2" stroke-linecap="round"/>
<path d="M31.6824 25.2874C31.8824 25.5283 32.252 25.5283 32.4519 25.2874L35.2376 21.9309C35.508 21.6051 35.2763 21.1116 34.8529 21.1116H29.2815C28.858 21.1116 28.6263 21.6051 28.8967 21.9309L31.6824 25.2874Z" fill="white"/>
<g opacity="0.7">
<path d="M13.6992 32.5985C16.0894 33.9785 18.8723 34.5196 21.6054 34.1359C24.3385 33.7521 26.8648 32.4655 28.7824 30.4806" stroke="white" stroke-width="2" stroke-linecap="round"/>
<path d="M11.0427 30.3965C10.7341 30.4492 10.5493 30.7693 10.6579 31.0629L12.1719 35.1536C12.3189 35.5507 12.8621 35.5968 13.0738 35.2301L15.8595 30.4051C16.0712 30.0384 15.7597 29.591 15.3423 29.6622L11.0427 30.3965Z" fill="white"/>
</g>
<g opacity="0.8">
<path d="M13.698 11.1704C11.3078 12.5503 9.44773 14.6898 8.41354 17.2487C7.37935 19.8075 7.23045 22.6386 7.99054 25.2918" stroke="white" stroke-width="2" stroke-linecap="round"/>
<path d="M16.935 9.96946C17.0437 9.67586 16.8589 9.35575 16.5503 9.30305L12.2506 8.56882C11.8332 8.49754 11.5217 8.94496 11.7335 9.31168L14.5192 14.1366C14.7309 14.5033 15.2741 14.4573 15.4211 14.0602L16.935 9.96946Z" fill="white"/>
</g>
<path d="M19.878 28.68V15.52H21.278V28.68H19.878ZM20.382 27.168C19.598 27.168 18.8467 27.0653 18.128 26.86C17.4093 26.6453 16.8307 26.37 16.392 26.034L17.162 24.326C17.582 24.6247 18.0767 24.872 18.646 25.068C19.2247 25.2547 19.808 25.348 20.396 25.348C20.844 25.348 21.2033 25.306 21.474 25.222C21.754 25.1287 21.9593 25.0027 22.09 24.844C22.2207 24.6853 22.286 24.5033 22.286 24.298C22.286 24.0367 22.1833 23.8313 21.978 23.682C21.7727 23.5233 21.502 23.3973 21.166 23.304C20.83 23.2013 20.4567 23.108 20.046 23.024C19.6447 22.9307 19.2387 22.8187 18.828 22.688C18.4267 22.5573 18.058 22.3893 17.722 22.184C17.386 21.9787 17.1107 21.708 16.896 21.372C16.6907 21.036 16.588 20.6067 16.588 20.084C16.588 19.524 16.7373 19.0153 17.036 18.558C17.344 18.0913 17.8013 17.7227 18.408 17.452C19.024 17.172 19.794 17.032 20.718 17.032C21.334 17.032 21.9407 17.1067 22.538 17.256C23.1353 17.396 23.6627 17.6107 24.12 17.9L23.42 19.622C22.9627 19.3607 22.5053 19.1693 22.048 19.048C21.5907 18.9173 21.1427 18.852 20.704 18.852C20.2653 18.852 19.906 18.9033 19.626 19.006C19.346 19.1087 19.1453 19.244 19.024 19.412C18.9027 19.5707 18.842 19.7573 18.842 19.972C18.842 20.224 18.9447 20.4293 19.15 20.588C19.3553 20.7373 19.626 20.8587 19.962 20.952C20.298 21.0453 20.6667 21.1387 21.068 21.232C21.4787 21.3253 21.8847 21.4327 22.286 21.554C22.6967 21.6753 23.07 21.8387 23.406 22.044C23.742 22.2493 24.0127 22.52 24.218 22.856C24.4327 23.192 24.54 23.6167 24.54 24.13C24.54 24.6807 24.386 25.1847 24.078 25.642C23.77 26.0993 23.308 26.468 22.692 26.748C22.0853 27.028 21.3153 27.168 20.382 27.168Z" fill="white"/>
<defs>
<linearGradient id="paint0_linear_1617_54" x1="3.75" y1="4.5" x2="36.25" y2="41.375" gradientUnits="userSpaceOnUse">
<stop stop-color="#3B4ED3"/>
<stop offset="0.739367" stop-color="#3C50E0"/>
</linearGradient>
</defs>
</svg>
