<svg width="72" height="86" viewBox="0 0 72 86" fill="none" xmlns="http://www.w3.org/2000/svg">
<path d="M35.9011 37.9799C39.4514 37.9799 42.3295 35.1018 42.3295 31.5514C42.3295 28.0011 39.4514 25.123 35.9011 25.123C32.3507 25.123 29.4727 28.0011 29.4727 31.5514C29.4727 35.1018 32.3507 37.9799 35.9011 37.9799Z" fill="#087EA4"/>
<path d="M35.8983 55.1915C40.9442 60.0992 45.921 63.0024 49.9301 63.0024C51.2435 63.0024 52.4877 62.7259 53.5245 62.1038C57.1189 60.0301 58.4322 54.8459 57.188 47.4498C56.9807 46.1365 56.7042 44.8231 56.3585 43.4407C57.741 43.0259 58.9852 42.6112 60.2294 42.1965C67.2108 39.5007 71.0817 35.7681 71.0817 31.6898C71.0817 27.5425 67.2108 23.8099 60.2294 21.1832C58.9852 20.6993 57.741 20.2846 56.3585 19.939C56.7042 18.5565 56.9807 17.2432 57.188 15.9299C58.3631 8.39551 57.0498 3.14219 53.4554 1.06852C52.4186 0.446412 51.1743 0.169922 49.861 0.169922C45.921 0.169922 40.8751 3.07307 35.8291 7.98078C30.8523 3.07307 25.8755 0.169922 21.8664 0.169922C20.553 0.169922 19.3088 0.446412 18.272 1.06852C14.6776 3.14219 13.3643 8.32639 14.6085 15.7225C14.8159 17.0358 15.0923 18.3492 15.438 19.7316C14.0555 20.1464 12.8113 20.5611 11.5671 20.9758C4.58571 23.6716 0.714844 27.4042 0.714844 31.4825C0.714844 35.6298 4.58571 39.3624 11.5671 41.9891C12.8113 42.473 14.0555 42.8877 15.438 43.2333C15.0923 44.6158 14.8159 45.9291 14.6085 47.2424C13.4334 54.6385 14.7467 59.8919 18.272 61.8964C19.3088 62.5185 20.553 62.795 21.8664 62.795C25.8755 62.9333 30.8523 60.0301 35.8983 55.1915ZM32.0274 45.86C33.2716 45.9291 34.5849 45.9291 35.8983 45.9291C37.2116 45.9291 38.5249 45.9291 39.7691 45.86C38.5249 47.5189 37.2116 49.0396 35.8983 50.4912C34.5849 49.0396 33.2716 47.5189 32.0274 45.86ZM23.4562 38.7403C24.1474 39.9154 24.7695 41.0214 25.5299 42.1273C23.3871 41.8509 21.3825 41.5052 19.4471 41.0905C20.0692 39.2242 20.7604 37.2888 21.5899 35.3533C22.1429 36.4593 22.765 37.6344 23.4562 38.7403ZM19.4471 22.0818C21.3825 21.6671 23.3871 21.3214 25.5299 21.045C24.8386 22.1509 24.1474 23.2569 23.4562 24.432C22.765 25.607 22.1429 26.713 21.5899 27.8881C20.6913 25.8835 20.0001 23.9481 19.4471 22.0818ZM23.2488 31.5516C24.1474 29.6853 25.1151 27.819 26.2211 25.9527C27.2579 24.1555 28.433 22.3583 29.6081 20.5611C31.6818 20.4228 33.7555 20.3537 35.8983 20.3537C38.1102 20.3537 40.1839 20.4228 42.1884 20.5611C43.4326 22.3583 44.5386 24.1555 45.5754 25.9527C46.6814 27.819 47.6491 29.6853 48.5477 31.5516C47.6491 33.4179 46.6814 35.2842 45.5754 37.1505C44.5386 38.9477 43.3635 40.7449 42.1884 42.5421C40.1147 42.6803 38.0411 42.7495 35.8983 42.7495C33.6863 42.7495 31.6127 42.6803 29.6081 42.5421C28.3639 40.7449 27.2579 38.9477 26.2211 37.1505C25.1151 35.2842 24.1474 33.4179 23.2488 31.5516ZM50.2758 27.819L48.4094 24.3628C47.7182 23.1878 47.0961 22.0818 46.3358 20.9758C48.4786 21.2523 50.4831 21.5979 52.4186 22.0127C51.7965 23.9481 51.1052 25.8835 50.2758 27.819ZM50.2758 35.2842C51.1052 37.2196 51.7965 39.1551 52.4186 41.0214C50.4831 41.4361 48.4786 41.7817 46.3358 42.0582C47.027 40.9523 47.7182 39.8463 48.4094 38.6712C49.0315 37.6344 49.6537 36.4593 50.2758 35.2842ZM51.8656 59.2698C51.3126 59.6154 50.6214 59.7536 49.861 59.7536C46.474 59.7536 42.2575 56.9887 38.1102 52.8414C40.1147 50.6986 42.0502 48.2793 43.9856 45.5835C47.2344 45.307 50.3449 44.8231 53.248 44.1319C53.5936 45.3761 53.801 46.6203 54.0084 47.8645C54.9761 53.7399 54.2157 57.9564 51.8656 59.2698ZM55.46 22.8421C63.2017 25.0541 67.8329 28.4411 67.8329 31.5516C67.8329 34.2474 64.6533 36.9432 59.0543 39.086C57.9484 39.5007 56.7042 39.9154 55.46 40.261C54.5614 37.427 53.4554 34.5239 52.0729 31.5516C53.4554 28.5793 54.6305 25.6762 55.46 22.8421ZM49.9301 3.34956C50.6905 3.34956 51.3126 3.48781 51.9347 3.83342C54.2157 5.14675 55.0452 9.29411 54.0775 15.2387C53.8701 16.4137 53.5936 17.6579 53.3172 18.9713C50.414 18.3492 47.3035 17.8653 44.0547 17.5197C42.1884 14.8239 40.1839 12.4046 38.1793 10.2618C42.3267 6.18359 46.5431 3.34956 49.9301 3.34956ZM39.7691 17.2432C38.5249 17.1741 37.2116 17.1741 35.8983 17.1741C34.5849 17.1741 33.2716 17.1741 32.0274 17.2432C33.2716 15.5843 34.5849 14.0636 35.8983 12.612C37.2116 14.0636 38.5249 15.6534 39.7691 17.2432ZM19.9309 3.83342C20.4839 3.48781 21.1751 3.34956 21.9355 3.34956C25.3225 3.34956 29.539 6.11447 33.6863 10.2618C31.6818 12.4046 29.7463 14.8239 27.8109 17.5197C24.5621 17.7962 21.4516 18.28 18.5485 18.9713C18.2029 17.7271 17.9955 16.4829 17.7881 15.2387C16.8204 9.36323 17.5808 5.21587 19.9309 3.83342ZM16.3366 40.261C8.59482 38.0491 3.96361 34.6621 3.96361 31.5516C3.96361 28.8558 7.14325 26.16 12.7422 24.0172C13.8481 23.6025 15.0923 23.1878 16.3366 22.8421C17.2351 25.6762 18.3411 28.5793 19.7236 31.5516C18.3411 34.5239 17.166 37.4961 16.3366 40.261ZM17.7881 47.8645C17.9955 46.6894 18.272 45.4452 18.5485 44.1319C21.4516 44.754 24.5621 45.2379 27.8109 45.5835C29.6772 48.2793 31.6818 50.6986 33.6863 52.8414C29.539 56.9196 25.3225 59.7536 21.9355 59.7536C21.1751 59.7536 20.553 59.6154 19.9309 59.2698C17.5808 57.9564 16.8204 53.7399 17.7881 47.8645ZM14.885 76.343C16.4057 74.4767 16.4748 72.4031 15.6453 70.3294C14.8159 68.2557 13.0878 67.288 10.945 67.2189C8.38745 67.1497 5.76079 67.2189 3.20326 67.2189H2.7194V85.1216H4.79308V78.3476H8.04184C8.45658 78.3476 8.80219 78.4858 9.00956 78.8315L13.1569 85.2599C13.226 85.3981 13.4334 85.6055 13.5716 85.6055H16.2674C14.6085 83.0479 13.0187 80.6286 11.3597 78.1402C12.8113 77.9329 14.0555 77.449 14.885 76.343ZM4.79308 76.2048V69.3617H5.55343C7.14325 69.3617 8.80219 69.2925 10.392 69.4308C12.2583 69.4999 13.5716 70.9515 13.5716 72.8178C13.5716 74.6841 12.051 76.1357 10.1846 76.2048C8.5257 76.2739 6.86676 76.2048 4.79308 76.2048ZM31.5435 77.1034C30.4376 72.2648 26.0137 71.0206 22.6267 72.5413C20.0001 73.7164 18.825 75.9974 18.7558 78.8315C18.6867 80.9743 19.3088 82.9097 20.9678 84.3613C22.8341 86.0202 25.1151 86.2276 27.4653 85.8128C28.7786 85.5363 29.9537 84.9142 30.8523 83.9465C30.5067 83.4627 30.1611 82.9788 29.8155 82.5641C27.88 84.223 25.7372 84.776 23.3871 83.67C21.8664 82.9097 21.106 81.0434 20.9678 79.6609H31.6818V78.7623C31.7509 78.1402 31.6818 77.5872 31.5435 77.1034ZM21.106 78.2094C20.8986 76.1357 22.9723 73.9238 25.2534 73.9238C27.88 73.8546 29.539 75.4444 29.6081 78.2094H21.106ZM42.3267 72.1957C41.2898 71.9883 40.1839 71.9192 39.147 71.9883C37.4881 72.1266 36.0365 72.8869 34.8614 74.1311C35.207 74.615 35.4835 75.0988 35.8983 75.6518C36.0365 75.5136 36.1747 75.3753 36.313 75.3062C37.419 74.2694 38.7323 73.7164 40.3221 73.8546C41.5663 73.9237 42.7414 74.3385 43.087 75.5827C43.3635 76.5504 43.2944 77.5872 43.3635 78.6241C43.1561 78.6241 43.087 78.555 43.0179 78.4858C41.3589 77.1034 39.4926 76.8269 37.4881 77.3108C35.6218 77.7946 34.4467 79.2462 34.3084 81.1125C34.1702 83.2553 35.1379 84.8451 37.0042 85.6055C38.1793 86.0893 39.4926 86.0893 40.7368 85.8128C41.7046 85.6055 42.1193 85.0525 43.5017 84.2921V85.1907H45.4372C45.4372 82.4258 45.5063 79.0388 45.4372 75.8592C45.4372 73.8546 44.2621 72.6104 42.3267 72.1957ZM43.2944 80.9051C43.2252 81.1125 43.2944 81.3199 43.2944 81.5272C43.2944 82.9788 42.9488 83.4627 41.5663 84.0157C40.5986 84.3613 39.5618 84.4995 38.5249 84.1539C37.3498 83.8083 36.5204 82.7714 36.5204 81.5964C36.4512 80.4213 37.2116 79.2462 38.3867 78.9006C39.9765 78.3476 41.4281 78.6932 42.7414 79.6609C43.1561 80.0065 43.4326 80.3522 43.2944 80.9051ZM54.0775 74.062C55.8747 73.509 57.5336 73.8546 58.7778 75.3753L58.9852 75.5136C59.4691 75.0988 59.8838 74.6841 60.4368 74.2002C60.2294 73.9929 60.1603 73.8546 60.022 73.6473C58.0175 71.5045 54.0775 71.228 51.6582 72.956C48.2712 75.4444 48.3403 80.283 49.9993 82.8406C51.5891 85.2599 53.8701 86.0893 56.5659 85.7437C58.1557 85.5364 59.4691 84.776 60.5059 83.4627C60.022 83.0479 59.5382 82.6332 59.0543 82.1493C58.9161 82.2876 58.847 82.3567 58.7778 82.495C56.9115 84.5686 53.801 84.3613 52.1421 82.1493C51.1744 80.836 50.967 79.3153 51.2435 77.7946C51.3817 76.0666 52.2803 74.6841 54.0775 74.062ZM68.455 83.4627C68.3168 83.5318 68.2476 83.6009 68.2476 83.6009C67.6947 84.0157 67.1417 84.0848 66.5196 83.8774C65.8975 83.6009 65.8283 83.0479 65.7592 82.495V74.615C65.7592 74.4767 65.7592 74.7532 65.8283 74.062H68.455V71.9883H65.6901V68.5322H63.6164V72.2648H61.8192C61.681 72.2648 61.4736 72.4031 61.4736 72.5413C61.4045 73.0252 61.4736 73.3708 61.4736 74.062H63.6855V82.9097C63.6855 84.0157 63.962 84.9834 64.9298 85.5363C65.9666 86.1585 67.9711 86.0202 68.8697 85.2599C69.008 85.1907 69.0771 84.9142 69.0771 84.8451C68.8697 84.4304 68.6624 83.9465 68.455 83.4627Z" fill="#087EA4"/>
</svg>
